<svg width="103" height="76" viewBox="0 0 103 76" fill="none" xmlns="http://www.w3.org/2000/svg">
<path opacity="0.3" d="M29.8125 75.2207C39.0367 75.2207 46.512 71.5903 51.6566 65.0294C56.7789 58.4968 59.5234 49.1489 59.5234 37.7949H57.5234C57.5234 48.8531 54.848 57.718 50.0827 63.7953C45.3396 69.8443 38.4594 73.2207 29.8125 73.2207V75.2207ZM59.5234 37.7949V37.6973H57.5234V37.7949H59.5234ZM59.5234 37.6973C59.5234 26.3433 56.7789 17.0071 51.656 10.4865C46.5109 3.93755 39.0355 0.320312 29.8125 0.320312V2.32031C38.4606 2.32031 45.3407 5.6855 50.0833 11.722C54.8481 17.7868 57.5234 26.6391 57.5234 37.6973H59.5234ZM29.8125 0.320312C20.5895 0.320312 13.1141 3.93755 7.96903 10.4865C2.84611 17.0071 0.101562 26.3433 0.101562 37.6973H2.10156C2.10156 26.6391 4.77694 17.7868 9.54172 11.722C14.2843 5.6855 21.1644 2.32031 29.8125 2.32031V0.320312ZM0.101562 37.6973V37.7949H2.10156V37.6973H0.101562ZM0.101562 37.7949C0.101562 49.1489 2.84609 58.4968 7.96844 65.0294C13.113 71.5903 20.5883 75.2207 29.8125 75.2207V73.2207C21.1656 73.2207 14.2854 69.8443 9.5423 63.7953C4.77695 57.718 2.10156 48.8531 2.10156 37.7949H0.101562ZM29.8125 61.4043C25.8411 61.4043 22.6915 59.3745 20.4804 55.4164C18.2416 51.4085 16.9941 45.4499 16.9941 37.7949H14.9941C14.9941 45.6185 16.2613 51.9645 18.7344 56.3917C21.2353 60.8687 24.9949 63.4043 29.8125 63.4043V61.4043ZM16.9941 37.7949V37.6973H14.9941V37.7949H16.9941ZM16.9941 37.6973C16.9941 30.0422 18.2417 24.0964 20.4798 20.1013C22.6897 16.1567 25.8388 14.1367 29.8125 14.1367V12.1367C24.9972 12.1367 21.237 14.6577 18.735 19.1238C16.2613 23.5394 14.9941 29.8738 14.9941 37.6973H16.9941ZM29.8125 14.1367C33.7862 14.1367 36.9353 16.1567 39.1452 20.1013C41.3833 24.0964 42.6309 30.0422 42.6309 37.6973H44.6309C44.6309 29.8738 43.3637 23.5394 40.89 19.1238C38.388 14.6577 34.6278 12.1367 29.8125 12.1367V14.1367ZM42.6309 37.6973V37.7949H44.6309V37.6973H42.6309ZM42.6309 37.7949C42.6309 45.4499 41.3834 51.4085 39.1446 55.4164C36.9335 59.3745 33.7839 61.4043 29.8125 61.4043V63.4043C34.6301 63.4043 38.3897 60.8687 40.8906 56.3917C43.3637 51.9645 44.6309 45.6185 44.6309 37.7949H42.6309ZM86.7441 73H85.7441V74H86.7441V73ZM101.344 73V74H102.344V73H101.344ZM101.344 2.54102H102.344V1.54102H101.344V2.54102ZM86.6953 2.54102V1.54102H86.3822L86.125 1.71962L86.6953 2.54102ZM68.4824 15.1875L67.9121 14.3661L67.4824 14.6644V15.1875H68.4824ZM68.4824 28.2734H67.4824V30.1617L69.0444 29.1006L68.4824 28.2734ZM86.4512 16.0664V15.0664H86.1436L85.8892 15.2392L86.4512 16.0664ZM86.7441 16.0664H87.7441V15.0664H86.7441V16.0664ZM86.7441 74H101.344V72H86.7441V74ZM102.344 73V2.54102H100.344V73H102.344ZM101.344 1.54102H86.6953V3.54102H101.344V1.54102ZM86.125 1.71962L67.9121 14.3661L69.0528 16.0089L87.2657 3.36241L86.125 1.71962ZM67.4824 15.1875V28.2734H69.4824V15.1875H67.4824ZM69.0444 29.1006L87.0131 16.8936L85.8892 15.2392L67.9205 27.4463L69.0444 29.1006ZM86.4512 17.0664H86.7441V15.0664H86.4512V17.0664ZM85.7441 16.0664V73H87.7441V16.0664H85.7441Z" fill="black" fill-opacity="0.6"/>
</svg>
