<svg width="122" height="76" viewBox="0 0 122 76" fill="none" xmlns="http://www.w3.org/2000/svg">
<path opacity="0.3" d="M29.8125 75.2207C39.0367 75.2207 46.512 71.5903 51.6566 65.0294C56.7789 58.4968 59.5234 49.1489 59.5234 37.7949H57.5234C57.5234 48.8531 54.848 57.718 50.0827 63.7953C45.3396 69.8443 38.4594 73.2207 29.8125 73.2207V75.2207ZM59.5234 37.7949V37.6973H57.5234V37.7949H59.5234ZM59.5234 37.6973C59.5234 26.3433 56.7789 17.0071 51.656 10.4865C46.5109 3.93755 39.0355 0.320312 29.8125 0.320312V2.32031C38.4606 2.32031 45.3407 5.6855 50.0833 11.722C54.8481 17.7868 57.5234 26.6391 57.5234 37.6973H59.5234ZM29.8125 0.320312C20.5895 0.320312 13.1141 3.93755 7.96903 10.4865C2.84611 17.0071 0.101562 26.3433 0.101562 37.6973H2.10156C2.10156 26.6391 4.77694 17.7868 9.54172 11.722C14.2843 5.6855 21.1644 2.32031 29.8125 2.32031V0.320312ZM0.101562 37.6973V37.7949H2.10156V37.6973H0.101562ZM0.101562 37.7949C0.101562 49.1489 2.84609 58.4968 7.96844 65.0294C13.113 71.5903 20.5883 75.2207 29.8125 75.2207V73.2207C21.1656 73.2207 14.2854 69.8443 9.5423 63.7953C4.77695 57.718 2.10156 48.8531 2.10156 37.7949H0.101562ZM29.8125 61.4043C25.8411 61.4043 22.6915 59.3745 20.4804 55.4164C18.2416 51.4085 16.9941 45.4499 16.9941 37.7949H14.9941C14.9941 45.6185 16.2613 51.9645 18.7344 56.3917C21.2353 60.8687 24.9949 63.4043 29.8125 63.4043V61.4043ZM16.9941 37.7949V37.6973H14.9941V37.7949H16.9941ZM16.9941 37.6973C16.9941 30.0422 18.2417 24.0964 20.4798 20.1013C22.6897 16.1567 25.8388 14.1367 29.8125 14.1367V12.1367C24.9972 12.1367 21.237 14.6577 18.735 19.1238C16.2613 23.5394 14.9941 29.8738 14.9941 37.6973H16.9941ZM29.8125 14.1367C33.7862 14.1367 36.9353 16.1567 39.1452 20.1013C41.3833 24.0964 42.6309 30.0422 42.6309 37.6973H44.6309C44.6309 29.8738 43.3637 23.5394 40.89 19.1238C38.388 14.6577 34.6278 12.1367 29.8125 12.1367V14.1367ZM42.6309 37.6973V37.7949H44.6309V37.6973H42.6309ZM42.6309 37.7949C42.6309 45.4499 41.3834 51.4085 39.1446 55.4164C36.9335 59.3745 33.7839 61.4043 29.8125 61.4043V63.4043C34.6301 63.4043 38.3897 60.8687 40.8906 56.3917C43.3637 51.9645 44.6309 45.6185 44.6309 37.7949H42.6309ZM69.1172 73H68.1172V74H69.1172V73ZM120.387 73V74H121.387V73H120.387ZM120.387 61.2812H121.387V60.2812H120.387V61.2812ZM88.4043 61.2812H87.4043V62.2812H88.4043V61.2812ZM88.4043 60.6953L87.7297 59.9571L87.4043 60.2545V60.6953H88.4043ZM103.15 47.2188L103.825 47.9569L103.827 47.9548L103.15 47.2188ZM68.2871 24.3184H67.2871V25.3184H68.2871V24.3184ZM81.959 24.3184V25.3184H82.854L82.9529 24.4288L81.959 24.3184ZM82.0078 23.8789L83.0017 23.9893L83.0061 23.9496L83.0073 23.9097L82.0078 23.8789ZM105.006 22.6582H106.006L106.006 22.6497L105.006 22.6582ZM94.0195 39.6016L94.7026 40.3319L94.7027 40.3318L94.0195 39.6016ZM69.1172 62.8926L68.4341 62.1622L68.1172 62.4586V62.8926H69.1172ZM69.1172 74H120.387V72H69.1172V74ZM121.387 73V61.2812H119.387V73H121.387ZM120.387 60.2812H88.4043V62.2812H120.387V60.2812ZM89.4043 61.2812V60.6953H87.4043V61.2812H89.4043ZM89.0789 61.4335L103.825 47.9569L102.476 46.4806L87.7297 59.9571L89.0789 61.4335ZM103.827 47.9548C109.908 42.3621 114.044 38.1028 116.651 34.1324C119.29 30.1133 120.361 26.3949 120.361 21.9258H118.361C118.361 26.0016 117.406 29.3389 114.979 33.0346C112.521 36.779 108.551 40.8937 102.473 46.4827L103.827 47.9548ZM120.361 21.9258V21.8281H118.361V21.9258H120.361ZM120.361 21.8281C120.361 15.5143 117.657 10.1064 113.007 6.2963C108.37 2.49726 101.845 0.320312 94.2148 0.320312V2.32031C101.477 2.32031 107.526 4.39141 111.739 7.84335C115.939 11.2842 118.361 16.1302 118.361 21.8281H120.361ZM94.2148 0.320312C78.9123 0.320312 67.2871 9.96192 67.2871 23.9277H69.2871C69.2871 11.331 79.7323 2.32031 94.2148 2.32031V0.320312ZM67.2871 23.9277V24.3184H69.2871V23.9277H67.2871ZM68.2871 25.3184H81.959V23.3184H68.2871V25.3184ZM82.9529 24.4288L83.0017 23.9893L81.0139 23.7685L80.9651 24.2079L82.9529 24.4288ZM83.0073 23.9097C83.1846 18.1497 87.5773 13.7949 94.3125 13.7949V11.7949C86.5946 11.7949 81.2217 16.9128 81.0083 23.8482L83.0073 23.9097ZM94.3125 13.7949C100.079 13.7949 103.962 17.5174 104.006 22.6667L106.006 22.6497C105.952 16.2756 101.046 11.7949 94.3125 11.7949V13.7949ZM104.006 22.6582V22.7559H106.006V22.6582H104.006ZM104.006 22.7559C104.006 25.0212 103.577 26.9203 102.074 29.2879C100.536 31.7119 97.8707 34.6295 93.3364 38.8713L94.7027 40.3318C99.2504 36.0776 102.078 33.0137 103.763 30.3596C105.483 27.6491 106.006 25.3733 106.006 22.7559H104.006ZM93.3364 38.8712L68.4341 62.1622L69.8003 63.6229L94.7026 40.3319L93.3364 38.8712ZM68.1172 62.8926V73H70.1172V62.8926H68.1172Z" fill="black" fill-opacity="0.6"/>
</svg>
