<svg width="125" height="76" viewBox="0 0 125 76" fill="none" xmlns="http://www.w3.org/2000/svg">
<path opacity="0.3" d="M29.8125 75.2207C39.0367 75.2207 46.512 71.5903 51.6566 65.0294C56.7789 58.4968 59.5234 49.1489 59.5234 37.7949H57.5234C57.5234 48.8531 54.848 57.718 50.0827 63.7953C45.3396 69.8443 38.4594 73.2207 29.8125 73.2207V75.2207ZM59.5234 37.7949V37.6973H57.5234V37.7949H59.5234ZM59.5234 37.6973C59.5234 26.3433 56.7789 17.0071 51.656 10.4865C46.5109 3.93755 39.0355 0.320312 29.8125 0.320312V2.32031C38.4606 2.32031 45.3407 5.6855 50.0833 11.722C54.8481 17.7868 57.5234 26.6391 57.5234 37.6973H59.5234ZM29.8125 0.320312C20.5895 0.320312 13.1141 3.93755 7.96903 10.4865C2.84611 17.0071 0.101562 26.3433 0.101562 37.6973H2.10156C2.10156 26.6391 4.77694 17.7868 9.54172 11.722C14.2843 5.6855 21.1644 2.32031 29.8125 2.32031V0.320312ZM0.101562 37.6973V37.7949H2.10156V37.6973H0.101562ZM0.101562 37.7949C0.101562 49.1489 2.84609 58.4968 7.96844 65.0294C13.113 71.5903 20.5883 75.2207 29.8125 75.2207V73.2207C21.1656 73.2207 14.2854 69.8443 9.5423 63.7953C4.77695 57.718 2.10156 48.8531 2.10156 37.7949H0.101562ZM29.8125 61.4043C25.8411 61.4043 22.6915 59.3745 20.4804 55.4164C18.2416 51.4085 16.9941 45.4499 16.9941 37.7949H14.9941C14.9941 45.6185 16.2613 51.9645 18.7344 56.3917C21.2353 60.8687 24.9949 63.4043 29.8125 63.4043V61.4043ZM16.9941 37.7949V37.6973H14.9941V37.7949H16.9941ZM16.9941 37.6973C16.9941 30.0422 18.2417 24.0964 20.4798 20.1013C22.6897 16.1567 25.8388 14.1367 29.8125 14.1367V12.1367C24.9972 12.1367 21.237 14.6577 18.735 19.1238C16.2613 23.5394 14.9941 29.8738 14.9941 37.6973H16.9941ZM29.8125 14.1367C33.7862 14.1367 36.9353 16.1567 39.1452 20.1013C41.3833 24.0964 42.6309 30.0422 42.6309 37.6973H44.6309C44.6309 29.8738 43.3637 23.5394 40.89 19.1238C38.388 14.6577 34.6278 12.1367 29.8125 12.1367V14.1367ZM42.6309 37.6973V37.7949H44.6309V37.6973H42.6309ZM42.6309 37.7949C42.6309 45.4499 41.3834 51.4085 39.1446 55.4164C36.9335 59.3745 33.7839 61.4043 29.8125 61.4043V63.4043C34.6301 63.4043 38.3897 60.8687 40.8906 56.3917C43.3637 51.9645 44.6309 45.6185 44.6309 37.7949H42.6309ZM105.934 36.4277H104.934V37.3386L105.841 37.4234L105.934 36.4277ZM105.934 36.1348L105.731 35.1555L104.934 35.3206V36.1348H105.934ZM69.9961 21.5352L70.9926 21.6182L70.9929 21.6149L69.9961 21.5352ZM69.9473 22.1211L68.9507 22.038L68.8605 23.1211H69.9473V22.1211ZM83.4727 22.1211V23.1211H84.3677L84.4665 22.2315L83.4727 22.1211ZM83.5215 21.6816L84.5154 21.7921L84.5158 21.7882L83.5215 21.6816ZM86.6465 31.4961V30.4961H85.6465V31.4961H86.6465ZM86.6465 41.9941H85.6465V42.9941H86.6465V41.9941ZM82.5449 53.5664L83.537 53.4412L83.5337 53.4142L83.5288 53.3875L82.5449 53.5664ZM82.4473 53.0293L83.4311 52.8504L83.2818 52.0293H82.4473V53.0293ZM68.3848 53.0293V52.0293H67.3049L67.3877 53.106L68.3848 53.0293ZM68.4336 53.6641L67.4365 53.7408L67.4368 53.7441L68.4336 53.6641ZM95.8262 75.2207C104.216 75.2207 111.296 73.0555 116.304 69.1895C121.333 65.3074 124.219 59.7452 124.219 53.127H122.219C122.219 59.1064 119.636 64.0911 115.082 67.6064C110.507 71.1379 103.892 73.2207 95.8262 73.2207V75.2207ZM124.219 53.127V53.0293H122.219V53.127H124.219ZM124.219 53.0293C124.219 47.9877 122.41 43.8111 119.179 40.777C115.964 37.7573 111.415 35.9357 106.027 35.4321L105.841 37.4234C110.901 37.8964 114.995 39.5903 117.81 42.2348C120.61 44.8647 122.219 48.5005 122.219 53.0293H124.219ZM106.934 36.4277V36.1348H104.934V36.4277H106.934ZM106.136 37.114C114.704 35.3396 121.631 29.3238 121.631 19.9238H119.631C119.631 28.102 113.667 33.512 105.731 35.1555L106.136 37.114ZM121.631 19.9238V19.8262H119.631V19.9238H121.631ZM121.631 19.8262C121.631 13.9569 119.031 9.03806 114.448 5.61553C109.89 2.21152 103.423 0.320312 95.6797 0.320312V2.32031C103.122 2.32031 109.13 4.14004 113.251 7.21796C117.348 10.2774 119.631 14.6115 119.631 19.8262H121.631ZM95.6797 0.320312C88.1062 0.320312 81.6962 2.37059 77.0347 6.06651C72.3612 9.77201 69.509 15.084 68.9993 21.4554L70.9929 21.6149C71.4598 15.7793 74.0519 10.9838 78.2773 7.63369C82.5147 4.27394 88.4583 2.32031 95.6797 2.32031V0.320312ZM68.9995 21.4521L68.9507 22.038L70.9438 22.2041L70.9926 21.6182L68.9995 21.4521ZM69.9473 23.1211H83.4727V21.1211H69.9473V23.1211ZM84.4665 22.2315L84.5154 21.7921L82.5276 21.5712L82.4788 22.0107L84.4665 22.2315ZM84.5158 21.7882C84.779 19.3312 85.9534 17.324 87.8374 15.9151C89.7348 14.4962 92.4044 13.6484 95.6797 13.6484V11.6484C92.0702 11.6484 88.9536 12.583 86.6396 14.3134C84.3123 16.0539 82.8499 18.5633 82.5272 21.5751L84.5158 21.7882ZM95.6797 13.6484C98.9947 13.6484 101.487 14.4662 103.132 15.8393C104.754 17.1925 105.666 19.1772 105.666 21.7793H107.666C107.666 18.6685 106.552 16.0878 104.414 14.3037C102.299 12.5397 99.2983 11.6484 95.6797 11.6484V13.6484ZM105.666 21.7793V21.877H107.666V21.7793H105.666ZM105.666 21.877C105.666 24.4283 104.609 26.5458 102.728 28.0473C100.828 29.5639 98.0263 30.4961 94.5078 30.4961V32.4961C98.3624 32.4961 101.64 31.4752 103.976 29.6104C106.331 27.7305 107.666 25.0385 107.666 21.877H105.666ZM94.5078 30.4961H86.6465V32.4961H94.5078V30.4961ZM85.6465 31.4961V41.9941H87.6465V31.4961H85.6465ZM86.6465 42.9941H94.7031V40.9941H86.6465V42.9941ZM94.7031 42.9941C98.8245 42.9941 101.962 43.8968 104.045 45.4868C106.09 47.0474 107.229 49.351 107.229 52.4434H109.229C109.229 48.7975 107.852 45.8764 105.259 43.8969C102.703 41.947 99.0779 40.9941 94.7031 40.9941V42.9941ZM107.229 52.4434V52.541H109.229V52.4434H107.229ZM107.229 52.541C107.229 55.1141 106.149 57.2819 104.216 58.828C102.266 60.3879 99.3909 61.3555 95.7773 61.3555V63.3555C99.7322 63.3555 103.082 62.2966 105.466 60.3898C107.867 58.4691 109.229 55.7297 109.229 52.541H107.229ZM95.7773 61.3555C88.4381 61.3555 84.084 57.7749 83.537 53.4412L81.5528 53.6916C82.2754 59.4165 87.8822 63.3555 95.7773 63.3555V61.3555ZM83.5288 53.3875L83.4311 52.8504L81.4634 53.2082L81.5611 53.7453L83.5288 53.3875ZM82.4473 52.0293H68.3848V54.0293H82.4473V52.0293ZM67.3877 53.106L67.4365 53.7408L69.4306 53.5874L69.3818 52.9526L67.3877 53.106ZM67.4368 53.7441C67.948 60.1082 70.9477 65.5059 75.9009 69.2959C80.8413 73.0761 87.6728 75.2207 95.8262 75.2207V73.2207C88.0128 73.2207 81.6363 71.1661 77.1162 67.7075C72.6089 64.2587 69.8958 59.3781 69.4304 53.584L67.4368 53.7441Z" fill="black" fill-opacity="0.6"/>
</svg>
