<svg width="97" height="97" viewBox="0 0 97 97" fill="none" xmlns="http://www.w3.org/2000/svg">
<path d="M1 16.0003C1 7.64234 7.8354 0.880978 16.221 1.00159C24.3436 1.11842 30.9484 7.77994 30.9997 15.9033C31.0284 20.4525 29.0315 24.5355 25.8583 27.3051C25.5234 27.5972 25.5716 28.1306 25.9542 28.3569L28.7806 30.0293C29.2376 30.2996 29.0458 31.0002 28.5149 31L15.7161 30.9968C7.56285 30.8454 1 24.1898 1 16.0003Z" fill="#95D6A4"/>
<path d="M29.7618 30.0293L26.9115 28.357C26.5278 28.1318 26.4745 27.5993 26.8104 27.3087C30.0469 24.5097 32.0714 20.3675 31.9981 15.7577C31.8711 7.78404 25.3631 1.23883 17.3246 1.00649C16.1847 0.973643 15.0724 1.06613 14 1.27054C20.9483 2.5914 26.2434 8.66473 26.2895 15.9034C26.3118 19.409 25.1212 22.6377 23.1093 25.2019C21.8946 26.7502 22.2894 28.9955 23.9919 29.9944L24.0515 30.0293C24.5074 30.2967 24.3224 30.9838 23.8003 30.9987L29.4936 31C30.0292 31.0002 30.2226 30.2997 29.7618 30.0293Z" fill="#78C2A4"/>
<path d="M74.9711 56H41.0289C32.5513 56 27.9122 45.9948 33.3266 39.3887L33.6277 39.0213C36.013 36.111 37.3187 32.4476 37.3187 28.6654V22.0368C37.3189 10.4184 46.619 1 58.0913 1C69.5636 1 78.8637 10.4184 78.8637 22.0366V28.889C78.8637 32.7109 80.1969 36.4099 82.6276 39.3334C88.1098 45.9261 83.4818 56 74.9711 56Z" fill="#C59191"/>
<path d="M93 73.1097V96H23V73.2825C23 68.1394 26.0379 63.4976 30.7111 61.5022L42.009 56.5166L45.8153 54.8381C48.7018 53.5648 50.57 50.6764 50.57 47.4826V46H65.4319V47.4058C65.4319 50.6149 67.3171 53.5149 70.2225 54.7786L85.5066 61.4254C90.0624 63.4746 93 68.0549 93 73.1097Z" fill="white"/>
<path d="M41.7475 61.7328C45.6528 62.8843 51.4012 64.1126 58.4079 63.9917C64.9822 63.8785 70.3791 62.6169 74.1342 61.4332L76 57.0485L70.3179 54.6453C67.3743 53.4002 65.4659 50.5439 65.4659 47.3836V46H50.4159V47.4589C50.4159 50.6043 48.5251 53.4501 45.6021 54.7043L41 56.6789L41.7475 61.7328Z" fill="#FFCEBF"/>
<path d="M85.5105 61.9334L74.0021 57L74 57.0002V96H93V73.4464C93 68.4649 90.0641 63.9516 85.5105 61.9334Z" fill="#8795DE"/>
<path d="M42 57V96H23V73.5606C23 68.4805 26.0364 63.8955 30.7075 61.9246L42 57Z" fill="#8795DE"/>
<path d="M62.1992 44H58.8008C57.2539 44 56 42.6569 56 41C56 39.3431 57.2539 38 58.8008 38H62.1992C63.7461 38 65 39.3431 65 41C65 42.6569 63.7461 44 62.1992 44Z" fill="white"/>
<path d="M58.3285 40C57.5959 40 57 40.673 57 41.5C57 42.327 57.5961 43 58.3285 43H61.6715C62.4041 43 63 42.327 63 41.5C63 40.673 62.4039 40 61.6715 40H58.3285Z" fill="black"/>
<path d="M58.5 74C59.3284 74 60 73.3284 60 72.5C60 71.6716 59.3284 71 58.5 71C57.6716 71 57 71.6716 57 72.5C57 73.3284 57.6716 74 58.5 74Z" fill="black"/>
<path d="M63.2021 54C64.9024 54 66.5229 53.6633 68 53.0556C66.4156 51.6133 65.469 49.5612 65.469 47.3578V46H50.6884V47.4317C50.6884 48.5469 50.445 49.6232 50 50.6018C52.2381 52.7057 55.266 54 58.6023 54H63.2021Z" fill="#FFB09E"/>
<path d="M73 23.1601V35.4567C73 42.3843 67.3298 48 60.3354 48H55.6646C48.67 48 43 42.3841 43 35.4567V23.1601C43 18.6535 46.6888 15 51.239 15H64.761C69.3114 15.0002 73 18.6535 73 23.1601Z" fill="#FFCEBF"/>
<path d="M62.1992 42H58.8008C57.2539 42 56 40.8807 56 39.5C56 38.1193 57.2539 37 58.8008 37H62.1992C63.7461 37 65 38.1193 65 39.5C65 40.8807 63.7461 42 62.1992 42Z" fill="#685E68"/>
<path d="M61.0213 12.1767C61.3392 8.10322 65.1782 5.40005 68.8526 4C74.9307 7.69962 79 14.4548 79 22.176V23.6318C78.6639 23.7033 78.3295 23.7661 77.999 23.8162C75.9748 24.1233 74.251 23.9904 73.0733 23.8162C65.4848 22.7892 60.6373 17.0963 61.0213 12.1767Z" fill="#B98080"/>
<path d="M58.229 1C63.0235 1 67.4462 2.59884 71 5.29408C69.2271 8.396 65.1563 14.5288 57.5227 19.069C51.8559 22.4397 46.5125 23.5722 43.2219 24H37V22.3464C36.9998 10.5571 46.5044 1 58.229 1Z" fill="#C59191"/>
<path d="M81.452 96H35.5481L33.0163 72.1639C32.8367 70.4733 34.1648 69 35.8682 69H81.1318C82.8354 69 84.1634 70.4733 83.9837 72.1639L81.452 96Z" fill="#EFEDEF"/>
<path d="M80.9997 69H75C76.7819 69 78.171 70.4733 77.9833 72.1639L75.335 96H81.3347L83.983 72.1641C84.1708 70.4733 82.7816 69 80.9997 69Z" fill="#E5E1E5"/>
<path d="M95.5791 97H1.4209C0.635994 97 0 96.3284 0 95.5C0 94.6716 0.635994 94 1.4209 94H95.5791C96.364 94 97 94.6716 97 95.5C97 96.3284 96.364 97 95.5791 97Z" fill="#C9BFC8"/>
<path d="M58 86C60.2091 86 62 84.2091 62 82C62 79.7909 60.2091 78 58 78C55.7909 78 54 79.7909 54 82C54 84.2091 55.7909 86 58 86Z" fill="#C9BFC8"/>
<path d="M22.1609 17.8978C22.9456 17.8978 23.5818 17.2617 23.5818 16.4769C23.5818 15.6922 22.9456 15.056 22.1609 15.056C21.3762 15.056 20.74 15.6922 20.74 16.4769C20.74 17.2617 21.3762 17.8978 22.1609 17.8978ZM10.7937 17.8978C11.5784 17.8978 12.2146 17.2617 12.2146 16.4769C12.2146 15.6922 11.5784 15.056 10.7937 15.056C10.009 15.056 9.37281 15.6922 9.37281 16.4769C9.37281 17.2617 10.009 17.8978 10.7937 17.8978ZM16.4773 17.8978C17.262 17.8978 17.8982 17.2617 17.8982 16.4769C17.8982 15.6922 17.262 15.056 16.4773 15.056C15.6926 15.056 15.0564 15.6922 15.0564 16.4769C15.0564 17.2617 15.6926 17.8978 16.4773 17.8978ZM16.1657 32.9504C16.1744 32.9506 16.1831 32.9506 16.1918 32.9506L29.0384 32.9539H29.0392C29.9268 32.9539 30.6802 32.3789 30.9146 31.5229C31.1491 30.6666 30.7931 29.7877 30.0293 29.3359L28.0754 28.1798C31.2158 25.0673 32.9821 20.8205 32.954 16.371C32.8978 7.47281 25.6148 0.129807 16.7192 0.00173714C7.50139 -0.13069 0 7.32561 0 16.4773C0 25.2533 7.23105 32.7604 16.1657 32.9504ZM6.90556 6.76596C9.5257 4.18334 12.9889 2.79181 16.6785 2.84315C24.0393 2.94906 30.0656 9.02557 30.1122 16.3888C30.1374 20.3615 28.4339 24.1394 25.4382 26.7534C24.9373 27.1903 24.6749 27.846 24.7356 28.5074C24.7962 29.1684 25.1738 29.7648 25.745 30.1026L25.7592 30.1109L16.2058 30.1086C8.82075 29.9669 2.8418 23.8828 2.8418 16.4773C2.8418 12.798 4.28505 9.34916 6.90556 6.76596ZM95.5791 94.1581H94.1582V72.9981C94.1582 67.4544 90.8823 62.4202 85.7967 60.1659L78.3083 56.9564C80.1305 56.3814 81.7767 55.3561 83.1161 53.9339C85.137 51.7883 86.2959 48.877 86.2959 45.9463C86.2959 43.2535 85.355 40.7118 83.5748 38.5954C81.3479 35.9512 80.1216 32.5907 80.1216 29.1324V22.3235C80.1216 16.3599 77.7991 10.7543 73.5823 6.53957C69.3654 2.32235 63.7593 3.20612e-05 57.7966 3.20612e-05C45.4875 3.20612e-05 35.4734 10.0141 35.4734 22.3233V28.9106C35.4741 32.4889 34.0678 35.9046 31.7826 38.6579C28.9066 42.123 28.309 46.808 30.2234 50.8844C31.6443 53.9104 34.2073 56.0844 37.2755 57.0045L29.8394 60.2381C24.6225 62.4335 21.2513 67.5091 21.2513 73.1688V89.8956C21.2513 90.6804 21.8873 91.3165 22.6722 91.3165C23.4571 91.3165 24.0931 90.6804 24.0931 89.8956V73.1688C24.0931 68.6557 26.7813 64.608 30.9572 62.8509L40.2779 58.7977V62.0248V62.0351V67.3506H35.9957C34.7889 67.3506 33.6338 67.8651 32.8265 68.7624C32.0195 69.6596 31.6296 70.8624 31.7569 72.0624L34.0991 94.1581H1.4209C0.635994 94.1581 0 94.7943 0 95.579C0 96.3638 0.635994 96.9999 1.4209 96.9999H35.6752H35.689H81.163H81.1647H81.1666H95.5791C96.364 96.9999 97 96.3638 97 95.579C97 94.7943 96.364 94.1581 95.5791 94.1581ZM81.4006 40.4251C82.744 42.0222 83.4541 43.9313 83.4541 45.9462C83.4541 48.1603 82.5769 50.3614 81.0475 51.9854C79.428 53.7046 77.2033 54.6515 74.783 54.6515H72.9313L70.4989 53.609C68.3742 52.6977 66.9207 50.7442 66.6236 48.4956C71.0078 46.135 73.9949 41.5022 73.9949 36.1836V25.5017C74.4107 25.5299 74.8262 25.5453 75.2405 25.5453C75.9239 25.5453 76.6046 25.5065 77.28 25.4299V29.1322C77.2798 33.2593 78.7435 37.27 81.4006 40.4251ZM58.1418 62.8565C53.0586 62.9465 48.0137 62.3024 43.1195 60.945V57.5619L43.5304 57.3832C43.5337 57.3819 43.5369 57.3804 43.5403 57.3791L46.0752 56.2768C48.8969 55.0501 50.8909 52.5376 51.4954 49.6015C52.7327 49.9612 54.0387 50.1579 55.3906 50.1579H60.0206C61.3777 50.1579 62.6885 49.9597 63.93 49.5973C64.5544 52.52 66.556 55.01 69.379 56.221L72.0844 57.3804C72.0861 57.3812 72.0878 57.3819 72.0896 57.3825L72.29 57.4683V60.6657C67.6916 62.0358 62.9373 62.7728 58.1418 62.8565ZM72.2898 63.6242V67.3507H43.1195V63.8875C47.7259 65.0953 52.4554 65.7065 57.2169 65.7065C57.5416 65.7065 57.8666 65.7036 58.1915 65.698C62.9638 65.6146 67.6971 64.9172 72.2898 63.6242ZM77.2798 22.5646C73.3659 23.0934 68.9541 22.045 65.9145 19.6899C65.2944 19.2094 64.4019 19.3223 63.9211 19.9428C63.4404 20.5631 63.5537 21.4556 64.174 21.9362C66.1612 23.4757 68.558 24.5601 71.1531 25.1069V32.8425C70.4703 34.3986 69.7102 35.6928 67.9966 37.1065C67.2752 37.7017 66.4855 38.196 65.6398 38.5882C64.9492 37.2406 63.5467 36.3157 61.9315 36.3157H58.6016C56.3049 36.3157 54.4365 38.1843 54.4365 40.4808C54.4365 42.7774 56.3049 44.6459 58.6016 44.6459H61.9315C63.8643 44.6459 65.4936 43.3224 65.9613 41.5344C67.8621 40.8101 70.9614 38.2263 70.9621 38.2254C69.9999 43.3912 65.4613 47.3153 60.0208 47.3153H55.3904C49.2521 47.3153 44.2581 42.3215 44.2581 36.1831V25.1997C49.0841 24.4432 53.6433 22.8102 57.8245 20.337C64.1909 16.5713 68.2745 11.6504 70.7389 7.76268C74.9556 11.5182 77.3543 16.9023 77.2798 22.5646ZM63.2544 40.4848C63.2523 41.2129 62.6597 41.8045 61.9313 41.8045H58.6014C57.8717 41.8045 57.2781 41.2108 57.2781 40.4812C57.2781 39.7516 57.8719 39.1579 58.6014 39.1579H61.9313C62.6595 39.1579 63.2519 39.7492 63.2544 40.4768V40.4848ZM38.315 22.3233C38.315 11.5811 47.0543 2.84183 57.7966 2.84183C61.6492 2.84183 65.3306 3.95391 68.4765 6.02426C66.2085 9.65967 62.3913 14.3346 56.3778 17.8918C52.2525 20.3319 47.7274 21.8898 42.9278 22.5222H42.8391C42.8386 22.5222 42.838 22.5222 42.8372 22.5222C42.8365 22.5222 42.8361 22.5222 42.8353 22.5222H38.315V22.3233ZM32.7955 49.6765C31.3547 46.6077 31.8044 43.0811 33.9676 40.4749C36.6819 37.2048 38.3182 33.1641 38.3152 28.9106V25.364H41.4165V36.1836C41.4165 41.5052 44.4074 46.1403 48.7955 48.4996C48.521 50.7653 47.0719 52.7445 44.9421 53.6705L42.6861 54.6515H40.6265C37.237 54.6515 34.2364 52.7452 32.7955 49.6765ZM82.2592 71.7631L79.8852 94.1581H36.9566L34.5826 71.7631C34.5396 71.3571 34.6661 70.9664 34.9391 70.6631C35.2121 70.3596 35.5874 70.1925 35.9955 70.1925H80.8461C81.2542 70.1925 81.6295 70.3596 81.9025 70.6631C82.1755 70.9664 82.302 71.3571 82.2592 71.7631ZM91.3164 94.1581H82.7427L85.0849 72.0628C85.2122 70.8626 84.8221 69.6598 84.0152 68.7625C83.208 67.8653 82.0531 67.3507 80.8461 67.3507H75.1314V61.7342C75.1316 61.717 75.1318 61.6999 75.1314 61.6827V58.6865L84.6611 62.7709C88.704 64.5631 91.3164 68.5774 91.3164 72.9981V94.1581ZM58.4207 76.7758C55.4434 76.7758 53.0213 79.198 53.0213 82.1752C53.0213 85.1525 55.4434 87.5747 58.4207 87.5747C61.398 87.5747 63.8201 85.1525 63.8201 82.1752C63.8201 79.198 61.398 76.7758 58.4207 76.7758ZM58.4207 84.7329C57.0104 84.7329 55.8631 83.5855 55.8631 82.1752C55.8631 80.765 57.0104 79.6176 58.4207 79.6176C59.831 79.6176 60.9783 80.765 60.9783 82.1752C60.9783 83.5855 59.8312 84.7329 58.4207 84.7329Z" fill="black"/>
</svg>
