<svg width="97" height="73" viewBox="0 0 97 73" fill="none" xmlns="http://www.w3.org/2000/svg">
<path d="M60 71C79.33 71 95 55.33 95 36C95 16.67 79.33 1 60 1C40.67 1 25 16.67 25 36C25 55.33 40.67 71 60 71Z" fill="#95D6A4"/>
<path d="M60.659 1C59.7645 1 58.8779 1.03368 58 1.09839C76.2762 2.44468 90.682 17.5558 90.682 35.9999C90.682 54.444 76.2762 69.5551 58 70.9016C58.8779 70.9663 59.7645 71 60.659 71C80.1773 70.9998 96 55.3299 96 35.9999C96 16.6699 80.1773 1 60.659 1Z" fill="#78C2A4"/>
<path d="M61 64C75.9117 64 88 51.9117 88 37C88 22.0883 75.9117 10 61 10C46.0883 10 34 22.0883 34 37C34 51.9117 46.0883 64 61 64Z" fill="#F4FBFF"/>
<path d="M60.4003 10C59.5911 10 58.7909 10.0388 58 10.1106C71.5655 11.3425 82.1991 22.9098 82.1991 37C82.1991 51.0902 71.5655 62.6573 58 63.8894C58.7909 63.961 59.5911 64 60.4003 64C75.091 64 87 51.9118 87 37.0002C87 22.0882 75.091 10 60.4003 10Z" fill="#DAF1F4"/>
<path d="M7.43467 16H22.5653C23.3576 16 24 15.3286 24 14.5C24 13.6714 23.3576 13 22.5653 13H7.43467C6.64235 13 6 13.6714 6 14.5C6 15.3286 6.64216 16 7.43467 16Z" fill="black"/>
<path d="M21.5404 23H15.4596C14.6535 23 14 23.6714 14 24.5C14 25.3286 14.6535 26 15.4596 26H21.5404C22.3465 26 23 25.3286 23 24.5C23 23.6714 22.3465 23 21.5404 23Z" fill="black"/>
<path d="M1.39326 33H15.6067C16.3762 33 17 32.3286 17 31.5C17 30.6714 16.3762 30 15.6067 30H1.39326C0.623809 30 0 30.6714 0 31.5C0 32.3286 0.623809 33 1.39326 33Z" fill="black"/>
<path d="M24 58.5C24 57.6714 23.3576 57 22.5653 57H7.43467C6.64235 57 6 57.6714 6 58.5C6 59.3286 6.64235 60 7.43467 60H22.5653C23.3576 60 24 59.3286 24 58.5Z" fill="black"/>
<path d="M21.5404 47H15.4596C14.6535 47 14 47.6714 14 48.5C14 49.3286 14.6535 50 15.4596 50H21.5404C22.3465 50 23 49.3286 23 48.5C23 47.6714 22.3465 47 21.5404 47Z" fill="black"/>
<path d="M17 41.5C17 40.6714 16.3762 40 15.6067 40H1.39326C0.623809 40 0 40.6714 0 41.5C0 42.3286 0.623809 43 1.39326 43H15.6067C16.3762 43 17 42.3286 17 41.5Z" fill="black"/>
<path d="M60.5 19C61.3286 19 62 18.3654 62 17.5821V15.4179C62 14.6346 61.3286 14 60.5 14C59.6714 14 59 14.6346 59 15.4179V17.5821C59 18.3654 59.6714 19 60.5 19Z" fill="black"/>
<path d="M75.6197 20.3804C75.1122 19.8732 74.2898 19.8732 73.7825 20.3804L72.3805 21.7824C71.8732 22.2899 71.8732 23.1123 72.3805 23.6196C72.8881 24.1269 73.7103 24.1267 74.2176 23.6196L75.6197 22.2175C76.1268 21.7102 76.1268 20.8878 75.6197 20.3804Z" fill="black"/>
<path d="M79.4179 35C78.6347 35 78 35.6714 78 36.5C78 37.3286 78.6347 38 79.4179 38H81.5821C82.3653 38 83 37.3286 83 36.5C83 35.6714 82.3653 35 81.5821 35H79.4179Z" fill="black"/>
<path d="M74.2175 48.3804C73.7101 47.8732 72.8877 47.8732 72.3805 48.3804C71.8732 48.8878 71.8732 49.7102 72.3805 50.2175L73.7825 51.6196C74.2901 52.1269 75.1123 52.1267 75.6195 51.6196C76.1268 51.1121 76.1268 50.2897 75.6195 49.7824L74.2175 48.3804Z" fill="black"/>
<path d="M59 55.4179V57.5821C59 58.3653 59.6714 59 60.5 59C61.3286 59 62 58.3653 62 57.5821V55.4179C62 54.6347 61.3286 54 60.5 54C59.6714 54 59 54.6349 59 55.4179Z" fill="black"/>
<path d="M45.7825 48.3804L44.3805 49.7824C43.8732 50.2899 43.8732 51.1123 44.3805 51.6196C44.888 52.1269 45.7103 52.1267 46.2175 51.6196L47.6195 50.2175C48.1268 49.71 48.1268 48.8877 47.6195 48.3804C47.1124 47.8732 46.2899 47.8732 45.7825 48.3804Z" fill="black"/>
<path d="M39.4179 35C38.6348 35 38 35.6714 38 36.5C38 37.3286 38.6348 38 39.4179 38H41.5821C42.3652 38 43 37.3286 43 36.5C43 35.6714 42.3652 35 41.5821 35H39.4179Z" fill="black"/>
<path d="M47.6195 21.7824L46.2175 20.3804C45.7101 19.8732 44.8876 19.8732 44.3805 20.3804C43.8732 20.8878 43.8732 21.7102 44.3805 22.2175L45.7825 23.6196C46.29 24.1269 47.1124 24.1267 47.6195 23.6196C48.1268 23.1123 48.1268 22.2899 47.6195 21.7824Z" fill="black"/>
<path d="M68 36.5611C68 35.7662 67.3683 35.1222 66.5888 35.1222H61.8225V24.4389C61.8225 23.6441 61.1908 23 60.4112 23C59.6317 23 59 23.6441 59 24.4389V36.5611C59 37.3559 59.6317 38 60.4112 38H66.5888C67.3681 38 68 37.3559 68 36.5611Z" fill="black"/>
<path d="M87.6558 36.2639C88.4447 36.2161 89.0452 35.5385 88.9973 34.7506C88.0872 19.7503 75.5811 8 60.526 8C44.7968 8 32 20.785 32 36.5001C32 52.215 44.7968 65 60.526 65C74.6179 65 86.6423 54.6847 88.7341 40.7646C88.8514 39.984 88.313 39.2561 87.5314 39.1389C86.752 39.022 86.0215 39.5593 85.9042 40.3404C84.0251 52.846 73.2169 62.1413 60.526 62.1413C46.3746 62.1413 34.8615 50.6387 34.8615 36.5003C34.8615 22.3618 46.3746 10.8591 60.526 10.8591C74.0708 10.8591 85.3222 21.4296 86.1409 34.9241C86.1886 35.7116 86.8662 36.3097 87.6558 36.2639Z" fill="black"/>
<path d="M60.704 0C55.7291 0 50.855 1.03789 46.3687 2.97885H21.4143C20.6332 2.97885 20 3.61547 20 4.40114C20 5.18682 20.6332 5.82343 21.4143 5.82343H41.0478C38.3932 7.54156 35.9494 9.61394 33.7947 12.0064C33.2704 12.5884 33.3146 13.4879 33.8935 14.0153C34.4726 14.5427 35.3667 14.4981 35.8913 13.9159C42.2279 6.87991 51.2719 2.84458 60.704 2.84458C79.1579 2.84458 94.1713 17.9423 94.1713 36.5C94.1713 55.0575 79.1581 70.1554 60.704 70.1554C42.2501 70.1554 27.2369 55.0577 27.2369 36.5C27.2369 30.0015 29.0829 23.6941 32.575 18.2594C32.9989 17.5996 32.8107 16.7193 32.1546 16.293C31.4985 15.8669 30.6232 16.0558 30.1991 16.7157C26.4105 22.6112 24.4082 29.4524 24.4082 36.5C24.4082 49.3511 31.0473 60.671 41.0568 67.1766H21.4145C20.6334 67.1766 20.0002 67.8132 20.0002 68.5989C20.0002 69.3845 20.6334 70.0211 21.4145 70.0211H46.3493C50.7544 71.9363 55.6079 73 60.7042 73C80.7176 73 97 56.6262 97 36.5C97 16.3738 80.7176 0 60.704 0Z" fill="black"/>
</svg>
