<svg width="379" height="118" viewBox="0 0 379 118" fill="none" xmlns="http://www.w3.org/2000/svg">
<path d="M16.3359 41.6836C25.9609 41.6836 31.7578 37.0078 31.7578 29.6523V29.625C31.7578 23.4727 28.1758 20.1367 19.9727 18.4414L15.707 17.5664C10.9492 16.582 8.78906 14.9414 8.78906 12.1523V12.125C8.78906 8.98047 11.6602 6.82031 16.2812 6.79297C20.7109 6.79297 23.7461 8.84375 24.2109 12.2891L24.2656 12.6172H31.0195L30.9922 12.1523C30.582 5.39844 24.9492 0.859375 16.3359 0.859375C7.83203 0.859375 1.73438 5.5625 1.70703 12.5078V12.5352C1.70703 18.4141 5.53516 22.0234 13.3008 23.6367L17.5391 24.5117C22.625 25.5781 24.6758 27.1641 24.6758 30.1172V30.1445C24.6758 33.5352 21.5586 35.75 16.582 35.75C11.6328 35.75 8.16016 33.6445 7.64062 30.2539L7.58594 29.9258H0.832031L0.859375 30.3359C1.32422 37.418 7.28516 41.6836 16.3359 41.6836ZM47.685 41.5742C49.0522 41.5742 50.2553 41.4375 51.0483 41.3281V36.2148C50.5834 36.2422 50.0639 36.3242 49.4077 36.3242C46.9194 36.3242 45.6616 35.4219 45.6616 32.5781V17.2656H51.0483V12.0156H45.6616V4.66016H38.7436V12.0156H34.642V17.2656H38.7436V33.1523C38.7436 39.1133 41.6147 41.5742 47.685 41.5742ZM64.4598 41.4922C68.288 41.4922 71.5145 39.5781 73.1825 36.543H73.3466V41H80.1552V21.0664C80.1552 15.2422 75.4794 11.4141 68.2333 11.4141C60.8778 11.4141 56.4208 15.2695 56.0106 20.4102L55.9833 20.7383H62.2997L62.3544 20.4922C62.7919 18.3594 64.7606 16.8555 67.9872 16.8555C71.4325 16.8555 73.3466 18.6328 73.3466 21.5586V23.5547L65.7723 24.0195C58.745 24.457 54.7528 27.5469 54.7528 32.6875V32.7422C54.7528 37.9102 58.663 41.4922 64.4598 41.4922ZM61.5341 32.4688V32.4414C61.5341 30.1445 63.3661 28.6953 66.7294 28.4766L73.3466 28.0664V30.2539C73.3466 33.6992 70.3934 36.2969 66.4833 36.2969C63.5028 36.2969 61.5341 34.8477 61.5341 32.4688ZM99.2816 51.1445C107.676 51.1445 112.953 46.7422 112.953 40.1797V12.0156H106.145V16.9375H105.981C104.34 13.6016 101.168 11.4141 97.0667 11.4141C89.7386 11.4141 85.0081 17.0469 85.0081 26.207V26.2344C85.0081 35.2578 89.6839 40.8359 96.9573 40.8359C101.114 40.8359 104.395 38.8672 106.008 35.7773H106.145V39.9609C106.145 43.6523 103.711 46.0039 99.2816 46.0039C95.7269 46.0039 93.4027 44.7461 92.6644 43.0781L92.5823 42.8594H85.8831L85.9378 43.1055C86.7581 47.6445 91.598 51.1445 99.2816 51.1445ZM99.0902 35.5859C94.7152 35.5859 91.9534 32.0586 91.9534 26.3438V26.3164C91.9534 20.6836 94.7152 17.1562 99.0902 17.1562C103.301 17.1562 106.172 20.7383 106.172 26.3438V26.3711C106.172 32.0039 103.328 35.5859 99.0902 35.5859ZM122.701 7.85938C124.834 7.85938 126.474 6.16406 126.474 4.14062C126.474 2.0625 124.834 0.394531 122.701 0.394531C120.568 0.394531 118.9 2.0625 118.9 4.14062C118.9 6.16406 120.568 7.85938 122.701 7.85938ZM119.283 41H126.092V12.0156H119.283V41ZM132.448 41H139.257V24.1836C139.257 20 141.745 17.1562 145.655 17.1562C149.538 17.1562 151.452 19.4805 151.452 23.6094V41H158.261V22.2422C158.261 15.5156 154.624 11.4141 148.253 11.4141C143.851 11.4141 140.898 13.4375 139.394 16.5547H139.257V12.0156H132.448V41ZM177.36 51.1445C185.755 51.1445 191.032 46.7422 191.032 40.1797V12.0156H184.223V16.9375H184.059C182.419 13.6016 179.247 11.4141 175.145 11.4141C167.817 11.4141 163.087 17.0469 163.087 26.207V26.2344C163.087 35.2578 167.762 40.8359 175.036 40.8359C179.192 40.8359 182.473 38.8672 184.087 35.7773H184.223V39.9609C184.223 43.6523 181.79 46.0039 177.36 46.0039C173.805 46.0039 171.481 44.7461 170.743 43.0781L170.661 42.8594H163.962L164.016 43.1055C164.837 47.6445 169.676 51.1445 177.36 51.1445ZM177.169 35.5859C172.794 35.5859 170.032 32.0586 170.032 26.3438V26.3164C170.032 20.6836 172.794 17.1562 177.169 17.1562C181.38 17.1562 184.251 20.7383 184.251 26.3438V26.3711C184.251 32.0039 181.407 35.5859 177.169 35.5859ZM211.717 41.6836C221.342 41.6836 227.139 37.0078 227.139 29.6523V29.625C227.139 23.4727 223.557 20.1367 215.354 18.4414L211.088 17.5664C206.33 16.582 204.17 14.9414 204.17 12.1523V12.125C204.17 8.98047 207.041 6.82031 211.662 6.79297C216.092 6.79297 219.127 8.84375 219.592 12.2891L219.647 12.6172H226.4L226.373 12.1523C225.963 5.39844 220.33 0.859375 211.717 0.859375C203.213 0.859375 197.115 5.5625 197.088 12.5078V12.5352C197.088 18.4141 200.916 22.0234 208.682 23.6367L212.92 24.5117C218.006 25.5781 220.057 27.1641 220.057 30.1172V30.1445C220.057 33.5352 216.94 35.75 211.963 35.75C207.014 35.75 203.541 33.6445 203.022 30.2539L202.967 29.9258H196.213L196.24 30.3359C196.705 37.418 202.666 41.6836 211.717 41.6836ZM245.035 41.5742C252.609 41.5742 256.875 37.0898 257.777 32.6328L257.859 32.332H251.488L251.433 32.5234C250.777 34.4648 248.562 36.2695 245.171 36.2695C240.742 36.2695 237.953 33.2617 237.843 28.1758H258.132V25.9883C258.132 17.2383 252.992 11.4141 244.707 11.4141C236.421 11.4141 231.089 17.4297 231.089 26.5625V26.5898C231.089 35.8047 236.339 41.5742 245.035 41.5742ZM244.789 16.7461C248.398 16.7461 251.023 19.043 251.515 23.6367H237.925C238.472 19.1797 241.179 16.7461 244.789 16.7461ZM273.868 41.5742C275.235 41.5742 276.438 41.4375 277.231 41.3281V36.2148C276.767 36.2422 276.247 36.3242 275.591 36.3242C273.103 36.3242 271.845 35.4219 271.845 32.5781V17.2656H277.231V12.0156H271.845V4.66016H264.927V12.0156H260.825V17.2656H264.927V33.1523C264.927 39.1133 267.798 41.5742 273.868 41.5742Z" fill="black"/>
<path d="M5.39844 74.8594C7.53125 74.8594 9.17188 73.1641 9.17188 71.1406C9.17188 69.0625 7.53125 67.3945 5.39844 67.3945C3.26562 67.3945 1.59766 69.0625 1.59766 71.1406C1.59766 73.1641 3.26562 74.8594 5.39844 74.8594ZM1.98047 108H8.78906V79.0156H1.98047V108ZM15.1459 108H21.9545V91.1836C21.9545 87 24.4428 84.1562 28.353 84.1562C32.2358 84.1562 34.1498 86.4805 34.1498 90.6094V108H40.9584V89.2422C40.9584 82.5156 37.3217 78.4141 30.9506 78.4141C26.5483 78.4141 23.5952 80.4375 22.0913 83.5547H21.9545V79.0156H15.1459V108ZM58.3075 108.574C65.4169 108.574 70.4755 104.91 70.4755 99.4414V99.4141C70.4755 95.2031 68.1512 92.8516 62.163 91.5117L57.3231 90.4453C54.3153 89.7617 53.1942 88.668 53.1942 87V86.9727C53.1942 84.8398 55.0809 83.4453 58.0887 83.4453C61.2606 83.4453 63.12 85.1406 63.4208 87.4648L63.4481 87.6836H69.7919L69.7645 87.3828C69.5184 82.3789 65.3075 78.4141 58.0887 78.4141C51.0887 78.4141 46.4677 81.9961 46.4677 87.3008V87.3281C46.4677 91.6211 49.2567 94.3281 54.8075 95.5586L59.62 96.625C62.6278 97.3086 63.6395 98.293 63.6395 100.043V100.07C63.6395 102.203 61.6434 103.543 58.3348 103.543C54.8895 103.543 53.0028 102.066 52.4833 99.5781L52.4286 99.332H45.7294L45.7567 99.5781C46.3583 104.965 50.7059 108.574 58.3075 108.574ZM75.3831 117.57H82.1917V103.105H82.3284C83.9691 106.496 87.2777 108.574 91.4066 108.574C98.68 108.574 103.328 102.832 103.328 93.5352V93.5078C103.328 84.1562 98.68 78.4141 91.3245 78.4141C87.1683 78.4141 83.9964 80.5469 82.3284 84.0195H82.1917V79.0156H75.3831V117.57ZM89.3011 102.832C85.0902 102.832 82.137 99.1953 82.137 93.5352V93.5078C82.137 87.8203 85.0902 84.1562 89.3011 84.1562C93.6488 84.1562 96.3831 87.7109 96.3831 93.5078V93.5352C96.3831 99.25 93.6488 102.832 89.3011 102.832ZM111.873 74.8594C114.006 74.8594 115.646 73.1641 115.646 71.1406C115.646 69.0625 114.006 67.3945 111.873 67.3945C109.74 67.3945 108.072 69.0625 108.072 71.1406C108.072 73.1641 109.74 74.8594 111.873 74.8594ZM108.455 108H115.263V79.0156H108.455V108ZM121.62 108H128.429V91.0195C128.429 86.9453 130.753 84.457 134.609 84.457C135.757 84.457 136.796 84.6211 137.37 84.8398V78.6875C136.851 78.5508 136.058 78.4141 135.21 78.4141C131.792 78.4141 129.249 80.4648 128.374 83.8555H128.238V79.0156H121.62V108ZM153.079 108.574C160.653 108.574 164.919 104.09 165.821 99.6328L165.903 99.332H159.532L159.477 99.5234C158.821 101.465 156.606 103.27 153.215 103.27C148.786 103.27 145.997 100.262 145.887 95.1758H166.176V92.9883C166.176 84.2383 161.036 78.4141 152.751 78.4141C144.465 78.4141 139.133 84.4297 139.133 93.5625V93.5898C139.133 102.805 144.383 108.574 153.079 108.574ZM152.833 83.7461C156.442 83.7461 159.067 86.043 159.559 90.6367H145.969C146.516 86.1797 149.223 83.7461 152.833 83.7461ZM182.459 108.574C189.568 108.574 194.627 104.91 194.627 99.4414V99.4141C194.627 95.2031 192.303 92.8516 186.315 91.5117L181.475 90.4453C178.467 89.7617 177.346 88.668 177.346 87V86.9727C177.346 84.8398 179.232 83.4453 182.24 83.4453C185.412 83.4453 187.272 85.1406 187.572 87.4648L187.6 87.6836H193.943L193.916 87.3828C193.67 82.3789 189.459 78.4141 182.24 78.4141C175.24 78.4141 170.619 81.9961 170.619 87.3008V87.3281C170.619 91.6211 173.408 94.3281 178.959 95.5586L183.772 96.625C186.779 97.3086 187.791 98.293 187.791 100.043V100.07C187.791 102.203 185.795 103.543 182.486 103.543C179.041 103.543 177.154 102.066 176.635 99.5781L176.58 99.332H169.881L169.908 99.5781C170.51 104.965 174.857 108.574 182.459 108.574ZM227.493 108.574C234.821 108.574 239.47 102.832 239.47 93.5078V93.4805C239.47 84.1289 234.794 78.4141 227.52 78.4141C223.419 78.4141 220.11 80.5195 218.47 83.9922H218.306V68.543H211.497V108H218.306V103.078H218.47C220.11 106.496 223.31 108.574 227.493 108.574ZM225.442 102.832C221.231 102.832 218.306 99.1953 218.306 93.5078V93.4805C218.306 87.8203 221.259 84.1562 225.442 84.1562C229.79 84.1562 232.524 87.7109 232.524 93.4805V93.5078C232.524 99.2773 229.817 102.832 225.442 102.832ZM254.276 108.574C258.651 108.574 261.631 106.551 263.135 103.461H263.272V108H270.08V79.0156H263.272V95.8047C263.272 100.016 260.784 102.832 256.873 102.832C252.991 102.832 251.077 100.508 251.077 96.4062V79.0156H244.268V97.7461C244.268 104.473 247.905 108.574 254.276 108.574ZM280.129 117.625C286.172 117.625 289.562 115.355 291.777 108.984L302.195 79.0156H295.031L288.223 102.203H288.031L281.25 79.0156H273.812L284.23 108.027L283.82 109.203C282.945 111.637 281.496 112.375 278.898 112.375C277.941 112.375 277.148 112.238 276.629 112.129V117.324C277.449 117.461 278.816 117.625 280.129 117.625ZM317.603 108.574C325.177 108.574 329.443 104.09 330.345 99.6328L330.427 99.332H324.056L324.001 99.5234C323.345 101.465 321.13 103.27 317.74 103.27C313.31 103.27 310.521 100.262 310.411 95.1758H330.7V92.9883C330.7 84.2383 325.56 78.4141 317.275 78.4141C308.99 78.4141 303.658 84.4297 303.658 93.5625V93.5898C303.658 102.805 308.908 108.574 317.603 108.574ZM317.357 83.7461C320.966 83.7461 323.591 86.043 324.083 90.6367H310.493C311.04 86.1797 313.747 83.7461 317.357 83.7461ZM335.663 108H342.471V91.0195C342.471 86.9453 344.796 84.457 348.651 84.457C349.8 84.457 350.839 84.6211 351.413 84.8398V78.6875C350.893 78.5508 350.1 78.4141 349.253 78.4141C345.835 78.4141 343.292 80.4648 342.417 83.8555H342.28V79.0156H335.663V108ZM366.793 108.574C373.902 108.574 378.961 104.91 378.961 99.4414V99.4141C378.961 95.2031 376.637 92.8516 370.649 91.5117L365.809 90.4453C362.801 89.7617 361.68 88.668 361.68 87V86.9727C361.68 84.8398 363.567 83.4453 366.574 83.4453C369.746 83.4453 371.606 85.1406 371.906 87.4648L371.934 87.6836H378.277L378.25 87.3828C378.004 82.3789 373.793 78.4141 366.574 78.4141C359.574 78.4141 354.953 81.9961 354.953 87.3008V87.3281C354.953 91.6211 357.742 94.3281 363.293 95.5586L368.106 96.625C371.113 97.3086 372.125 98.293 372.125 100.043V100.07C372.125 102.203 370.129 103.543 366.82 103.543C363.375 103.543 361.488 102.066 360.969 99.5781L360.914 99.332H354.215L354.242 99.5781C354.844 104.965 359.192 108.574 366.793 108.574Z" fill="#81C98D"/>
</svg>
