<svg width="296" height="118" viewBox="0 0 296 118" fill="none" xmlns="http://www.w3.org/2000/svg">
<path d="M0 1.19263C25.9507 -1.70278 25.9507 29 49.3333 29C72.716 29 76.8831 1.19263 98.6667 1.19263C120.45 1.19263 129.348 29 149.622 29C171.518 29 171.706 1.19263 197.333 1.19263C222.961 1.19263 227.474 29 250.586 29C270.86 29 272.077 1.19263 296 1.19263" stroke="#D5E1D7" stroke-width="2"/>
<path d="M0 45.1926C25.9507 42.2972 25.9507 73 49.3333 73C72.716 73 76.8831 45.1926 98.6667 45.1926C120.45 45.1926 129.348 73 149.622 73C171.518 73 171.706 45.1926 197.333 45.1926C222.961 45.1926 227.474 73 250.586 73C270.86 73 272.077 45.1926 296 45.1926" stroke="#D5E1D7" stroke-width="2"/>
<path d="M0 89.1926C25.9507 86.2972 25.9507 117 49.3333 117C72.716 117 76.8831 89.1926 98.6667 89.1926C120.45 89.1926 129.348 117 149.622 117C171.518 117 171.706 89.1926 197.333 89.1926C222.961 89.1926 227.474 117 250.586 117C270.86 117 272.077 89.1926 296 89.1926" stroke="#D5E1D7" stroke-width="2"/>
</svg>
