<svg width="168" height="38" viewBox="0 0 168 38" fill="none" xmlns="http://www.w3.org/2000/svg">
<g clip-path="url(#clip0)">
<path d="M0 12.4V37.8H12.1V22.9C12.1 22.2 12.3 21.6 12.6 21C13.3 19.8 14.7 18 17.4 18C20 18 21.6 19.7 22.4 20.9C22.8 21.5 23 22.3 23 23V37.7H35.1V12.4L17.5 0L0 12.4Z" fill="white"/>
</g>
<path d="M57.4297 32.293C61.5547 32.293 64.0391 30.2891 64.0391 27.1367V27.125C64.0391 24.4883 62.5039 23.0586 58.9883 22.332L57.1602 21.957C55.1211 21.5352 54.1953 20.832 54.1953 19.6367V19.625C54.1953 18.2773 55.4258 17.3516 57.4062 17.3398C59.3047 17.3398 60.6055 18.2188 60.8047 19.6953L60.8281 19.8359H63.7227L63.7109 19.6367C63.5352 16.7422 61.1211 14.7969 57.4297 14.7969C53.7852 14.7969 51.1719 16.8125 51.1602 19.7891V19.8008C51.1602 22.3203 52.8008 23.8672 56.1289 24.5586L57.9453 24.9336C60.125 25.3906 61.0039 26.0703 61.0039 27.3359V27.3477C61.0039 28.8008 59.668 29.75 57.5352 29.75C55.4141 29.75 53.9258 28.8477 53.7031 27.3945L53.6797 27.2539H50.7852L50.7969 27.4297C50.9961 30.4648 53.5508 32.293 57.4297 32.293ZM70.625 32.2461C71.2109 32.2461 71.7266 32.1875 72.0664 32.1406V29.9492C71.8672 29.9609 71.6445 29.9961 71.3633 29.9961C70.2969 29.9961 69.7578 29.6094 69.7578 28.3906V21.8281H72.0664V19.5781H69.7578V16.4258H66.793V19.5781H65.0352V21.8281H66.793V28.6367C66.793 31.1914 68.0234 32.2461 70.625 32.2461ZM77.5742 32.2109C79.2148 32.2109 80.5977 31.3906 81.3125 30.0898H81.3828V32H84.3008V23.457C84.3008 20.9609 82.2969 19.3203 79.1914 19.3203C76.0391 19.3203 74.1289 20.9727 73.9531 23.1758L73.9414 23.3164H76.6484L76.6719 23.2109C76.8594 22.2969 77.7031 21.6523 79.0859 21.6523C80.5625 21.6523 81.3828 22.4141 81.3828 23.668V24.5234L78.1367 24.7227C75.125 24.9102 73.4141 26.2344 73.4141 28.4375V28.4609C73.4141 30.6758 75.0898 32.2109 77.5742 32.2109ZM76.3203 28.3438V28.332C76.3203 27.3477 77.1055 26.7266 78.5469 26.6328L81.3828 26.457V27.3945C81.3828 28.8711 80.1172 29.9844 78.4414 29.9844C77.1641 29.9844 76.3203 29.3633 76.3203 28.3438ZM92.2578 36.3477C95.8555 36.3477 98.1172 34.4609 98.1172 31.6484V19.5781H95.1992V21.6875H95.1289C94.4258 20.2578 93.0664 19.3203 91.3086 19.3203C88.168 19.3203 86.1406 21.7344 86.1406 25.6602V25.6719C86.1406 29.5391 88.1445 31.9297 91.2617 31.9297C93.043 31.9297 94.4492 31.0859 95.1406 29.7617H95.1992V31.5547C95.1992 33.1367 94.1562 34.1445 92.2578 34.1445C90.7344 34.1445 89.7383 33.6055 89.4219 32.8906L89.3867 32.7969H86.5156L86.5391 32.9023C86.8906 34.8477 88.9648 36.3477 92.2578 36.3477ZM92.1758 29.6797C90.3008 29.6797 89.1172 28.168 89.1172 25.7188V25.707C89.1172 23.293 90.3008 21.7812 92.1758 21.7812C93.9805 21.7812 95.2109 23.3164 95.2109 25.7188V25.7305C95.2109 28.1445 93.9922 29.6797 92.1758 29.6797ZM102.055 17.7969C102.969 17.7969 103.672 17.0703 103.672 16.2031C103.672 15.3125 102.969 14.5977 102.055 14.5977C101.141 14.5977 100.426 15.3125 100.426 16.2031C100.426 17.0703 101.141 17.7969 102.055 17.7969ZM100.59 32H103.508V19.5781H100.59V32ZM105.992 32H108.91V24.793C108.91 23 109.977 21.7812 111.652 21.7812C113.316 21.7812 114.137 22.7773 114.137 24.5469V32H117.055V23.9609C117.055 21.0781 115.496 19.3203 112.766 19.3203C110.879 19.3203 109.613 20.1875 108.969 21.5234H108.91V19.5781H105.992V32ZM125 36.3477C128.598 36.3477 130.859 34.4609 130.859 31.6484V19.5781H127.941V21.6875H127.871C127.168 20.2578 125.809 19.3203 124.051 19.3203C120.91 19.3203 118.883 21.7344 118.883 25.6602V25.6719C118.883 29.5391 120.887 31.9297 124.004 31.9297C125.785 31.9297 127.191 31.0859 127.883 29.7617H127.941V31.5547C127.941 33.1367 126.898 34.1445 125 34.1445C123.477 34.1445 122.48 33.6055 122.164 32.8906L122.129 32.7969H119.258L119.281 32.9023C119.633 34.8477 121.707 36.3477 125 36.3477ZM124.918 29.6797C123.043 29.6797 121.859 28.168 121.859 25.7188V25.707C121.859 23.293 123.043 21.7812 124.918 21.7812C126.723 21.7812 127.953 23.3164 127.953 25.7188V25.7305C127.953 28.1445 126.734 29.6797 124.918 29.6797ZM139.484 32.293C143.609 32.293 146.094 30.2891 146.094 27.1367V27.125C146.094 24.4883 144.559 23.0586 141.043 22.332L139.215 21.957C137.176 21.5352 136.25 20.832 136.25 19.6367V19.625C136.25 18.2773 137.48 17.3516 139.461 17.3398C141.359 17.3398 142.66 18.2188 142.859 19.6953L142.883 19.8359H145.777L145.766 19.6367C145.59 16.7422 143.176 14.7969 139.484 14.7969C135.84 14.7969 133.227 16.8125 133.215 19.7891V19.8008C133.215 22.3203 134.855 23.8672 138.184 24.5586L140 24.9336C142.18 25.3906 143.059 26.0703 143.059 27.3359V27.3477C143.059 28.8008 141.723 29.75 139.59 29.75C137.469 29.75 135.98 28.8477 135.758 27.3945L135.734 27.2539H132.84L132.852 27.4297C133.051 30.4648 135.605 32.293 139.484 32.293ZM153.523 32.2461C156.77 32.2461 158.598 30.3242 158.984 28.4141L159.02 28.2852H156.289L156.266 28.3672C155.984 29.1992 155.035 29.9727 153.582 29.9727C151.684 29.9727 150.488 28.6836 150.441 26.5039H159.137V25.5664C159.137 21.8164 156.934 19.3203 153.383 19.3203C149.832 19.3203 147.547 21.8984 147.547 25.8125V25.8242C147.547 29.7734 149.797 32.2461 153.523 32.2461ZM153.418 21.6055C154.965 21.6055 156.09 22.5898 156.301 24.5586H150.477C150.711 22.6484 151.871 21.6055 153.418 21.6055ZM165.641 32.2461C166.227 32.2461 166.742 32.1875 167.082 32.1406V29.9492C166.883 29.9609 166.66 29.9961 166.379 29.9961C165.312 29.9961 164.773 29.6094 164.773 28.3906V21.8281H167.082V19.5781H164.773V16.4258H161.809V19.5781H160.051V21.8281H161.809V28.6367C161.809 31.1914 163.039 32.2461 165.641 32.2461Z" fill="white"/>
<defs>
<clipPath id="clip0">
<rect width="34.9" height="37.8" fill="white"/>
</clipPath>
</defs>
</svg>
