<svg width="581" height="267" viewBox="0 0 581 267" fill="none" xmlns="http://www.w3.org/2000/svg">
<path d="M6.14453 24H7.60547V9.83105H12.8047V8.49902H0.945312V9.83105H6.14453V24ZM14.034 24H15.4519V16.7812C15.4519 14.9121 16.784 13.5908 18.5886 13.5908C19.0291 13.5908 19.405 13.6338 19.824 13.7412V12.3447C19.5447 12.2803 19.158 12.2373 18.739 12.2373C17.1707 12.2373 16.0427 13.0107 15.5916 14.332H15.4519V12.4307H14.034V24ZM25.232 24.1934C26.94 24.1934 28.3257 23.3877 29.0132 22.0127H29.1421V24H30.5708V16.0938C30.5708 13.6553 28.9917 12.2373 26.2847 12.2373C23.8892 12.2373 22.1382 13.4189 21.8374 15.2666L21.8267 15.3096H23.2554L23.2662 15.2881C23.5669 14.1387 24.6734 13.5049 26.2417 13.5049C28.1109 13.5049 29.1421 14.4072 29.1421 16.1045V17.1895L25.5328 17.4258C22.8579 17.6084 21.3648 18.7793 21.3648 20.7881V20.8096C21.3648 22.8721 22.9976 24.1934 25.232 24.1934ZM22.815 20.7881V20.7666C22.815 19.4561 23.7603 18.7148 25.7261 18.5859L29.1421 18.3496V19.6924C29.1421 21.5293 27.5738 22.9473 25.5005 22.9473C23.9429 22.9473 22.815 22.1094 22.815 20.7881ZM34.1526 24H35.5706V17.125C35.5706 14.9443 36.9564 13.5049 38.9974 13.5049C41.0062 13.5049 42.0052 14.6328 42.0052 16.835V24H43.4232V16.4805C43.4232 13.7842 41.9515 12.2373 39.3733 12.2373C37.5687 12.2373 36.3226 13.0645 35.7103 14.4609H35.5706V12.4307H34.1526V24ZM50.8614 24.1934C53.3858 24.1934 55.3302 22.7969 55.3302 20.8096V20.7881C55.3302 19.123 54.2452 18.2207 52.0108 17.6836L50.4102 17.3076C48.8741 16.9424 48.1651 16.3945 48.1651 15.4492V15.4277C48.1651 14.2783 49.3575 13.4297 50.8721 13.4297C52.4083 13.4297 53.4825 14.1602 53.7403 15.2344H55.1368C54.8682 13.4082 53.2139 12.2373 50.8829 12.2373C48.5518 12.2373 46.7149 13.623 46.7149 15.4922V15.5029C46.7149 17.125 47.7139 18.0166 49.8624 18.5215L51.4737 18.9082C53.1602 19.3057 53.88 19.8965 53.88 20.8955V20.917C53.88 22.1201 52.6016 22.9902 50.9044 22.9902C49.2286 22.9902 48.1221 22.249 47.8106 21.0996H46.3497C46.586 22.9902 48.337 24.1934 50.8614 24.1934ZM59.1268 24H60.5555V13.623H63.2625V12.4307H60.5555V10.9805C60.5555 9.6377 61.1678 8.90723 62.4999 8.90723C62.8329 8.90723 63.1551 8.92871 63.37 8.96094V7.81152C63.0155 7.74707 62.661 7.71484 62.242 7.71484C60.2225 7.71484 59.1268 8.7998 59.1268 10.9482V12.4307H57.204V13.623H59.1268V24ZM70.2174 24.1934C73.4508 24.1934 75.4811 21.9053 75.4811 18.2207V18.1992C75.4811 14.5146 73.4508 12.2373 70.2174 12.2373C66.984 12.2373 64.9645 14.5146 64.9645 18.1992V18.2207C64.9645 21.9053 66.984 24.1934 70.2174 24.1934ZM70.2174 22.9258C67.8326 22.9258 66.4147 21.1426 66.4147 18.2207V18.1992C66.4147 15.2773 67.8326 13.5049 70.2174 13.5049C72.6022 13.5049 74.0201 15.2773 74.0201 18.1992V18.2207C74.0201 21.1426 72.6022 22.9258 70.2174 22.9258ZM78.5365 24H79.9545V16.7812C79.9545 14.9121 81.2865 13.5908 83.0912 13.5908C83.5316 13.5908 83.9076 13.6338 84.3266 13.7412V12.3447C84.0473 12.2803 83.6605 12.2373 83.2416 12.2373C81.6732 12.2373 80.5453 13.0107 80.0941 14.332H79.9545V12.4307H78.5365V24ZM86.9093 24H88.3273V16.8994C88.3273 15.0088 89.6164 13.5049 91.2921 13.5049C92.8927 13.5049 93.9455 14.5898 93.9455 16.2549V24H95.3634V16.6631C95.3634 14.8691 96.5558 13.5049 98.339 13.5049C100.079 13.5049 100.992 14.5146 100.992 16.4053V24H102.421V16.083C102.421 13.6338 101.078 12.2373 98.758 12.2373C97.0929 12.2373 95.7394 13.1289 95.1486 14.5146H95.0089C94.5148 13.1289 93.3546 12.2373 91.7326 12.2373C90.1535 12.2373 88.9611 13.0859 88.4669 14.4717H88.3273V12.4307H86.9093V24ZM112.721 27.9961C114.58 27.9961 115.461 27.2764 116.309 25.0098L120.982 12.4307H119.478L115.998 22.4639H115.847L112.356 12.4307H110.831L115.171 24.0752L114.881 24.9453C114.408 26.3311 113.753 26.8037 112.678 26.8037C112.485 26.8037 112.259 26.8037 112.088 26.7715V27.9531C112.292 27.9854 112.528 27.9961 112.721 27.9961ZM127.808 24.1934C131.041 24.1934 133.072 21.9053 133.072 18.2207V18.1992C133.072 14.5146 131.041 12.2373 127.808 12.2373C124.575 12.2373 122.555 14.5146 122.555 18.1992V18.2207C122.555 21.9053 124.575 24.1934 127.808 24.1934ZM127.808 22.9258C125.423 22.9258 124.005 21.1426 124.005 18.2207V18.1992C124.005 15.2773 125.423 13.5049 127.808 13.5049C130.193 13.5049 131.611 15.2773 131.611 18.1992V18.2207C131.611 21.1426 130.193 22.9258 127.808 22.9258ZM140.091 24.1934C141.885 24.1934 143.185 23.377 143.754 21.9805H143.883V24H145.301V12.4307H143.883V19.3057C143.883 21.4971 142.594 22.9258 140.435 22.9258C138.447 22.9258 137.448 21.7549 137.448 19.5957V12.4307H136.031V19.9502C136.031 22.6035 137.491 24.1934 140.091 24.1934ZM148.947 24H150.365V16.7812C150.365 14.9121 151.697 13.5908 153.502 13.5908C153.942 13.5908 154.318 13.6338 154.737 13.7412V12.3447C154.458 12.2803 154.071 12.2373 153.652 12.2373C152.084 12.2373 150.956 13.0107 150.505 14.332H150.365V12.4307H148.947V24ZM163.244 24H164.662V7.82227H163.244V24ZM169.2 10.0244C169.769 10.0244 170.242 9.5625 170.242 8.98242C170.242 8.40234 169.769 7.94043 169.2 7.94043C168.619 7.94043 168.147 8.40234 168.147 8.98242C168.147 9.5625 168.619 10.0244 169.2 10.0244ZM168.48 24H169.898V12.4307H168.48V24ZM177.497 24.1934C180.022 24.1934 181.966 22.7969 181.966 20.8096V20.7881C181.966 19.123 180.881 18.2207 178.647 17.6836L177.046 17.3076C175.51 16.9424 174.801 16.3945 174.801 15.4492V15.4277C174.801 14.2783 175.993 13.4297 177.508 13.4297C179.044 13.4297 180.118 14.1602 180.376 15.2344H181.773C181.504 13.4082 179.85 12.2373 177.519 12.2373C175.188 12.2373 173.351 13.623 173.351 15.4922V15.5029C173.351 17.125 174.35 18.0166 176.498 18.5215L178.109 18.9082C179.796 19.3057 180.516 19.8965 180.516 20.8955V20.917C180.516 22.1201 179.237 22.9902 177.54 22.9902C175.864 22.9902 174.758 22.249 174.446 21.0996H172.985C173.222 22.9902 174.973 24.1934 177.497 24.1934ZM188.727 24.0752C189.071 24.0752 189.393 24.043 189.716 23.9893V22.7646C189.426 22.7969 189.211 22.8076 188.889 22.8076C187.578 22.8076 187.073 22.2168 187.073 20.7988V13.623H189.716V12.4307H187.073V9.42285H185.601V12.4307H183.743V13.623H185.601V21.1211C185.601 23.2266 186.515 24.0752 188.727 24.0752ZM193.48 10.0244C194.049 10.0244 194.522 9.5625 194.522 8.98242C194.522 8.40234 194.049 7.94043 193.48 7.94043C192.9 7.94043 192.427 8.40234 192.427 8.98242C192.427 9.5625 192.9 10.0244 193.48 10.0244ZM192.76 24H194.178V12.4307H192.76V24ZM197.889 24H199.307V17.125C199.307 14.9443 200.693 13.5049 202.734 13.5049C204.743 13.5049 205.742 14.6328 205.742 16.835V24H207.16V16.4805C207.16 13.7842 205.688 12.2373 203.11 12.2373C201.305 12.2373 200.059 13.0645 199.447 14.4609H199.307V12.4307H197.889V24ZM215.403 28.0391C218.444 28.0391 220.431 26.3848 220.431 23.8604V12.4307H219.002V14.7725H218.905C218.239 13.2256 216.811 12.2373 215.027 12.2373C212.041 12.2373 210.129 14.6006 210.129 17.9092V17.9307C210.129 21.25 212.03 23.5811 215.006 23.5811C216.778 23.5811 218.196 22.7002 218.884 21.1748H219.024V23.7637C219.024 25.6328 217.638 26.7715 215.403 26.7715C213.642 26.7715 212.439 26.0732 212.181 25.0635L212.17 25.0527H210.698L210.688 25.0635C210.988 26.8574 212.75 28.0391 215.403 28.0391ZM215.285 22.3135C212.976 22.3135 211.579 20.5195 211.579 17.9307V17.9092C211.579 15.3203 212.976 13.5049 215.285 13.5049C217.573 13.5049 219.045 15.3418 219.045 17.9307V17.9521C219.045 20.541 217.606 22.3135 215.285 22.3135ZM232.214 24H233.696L236.543 14.3965H236.682L239.529 24H241.022L244.32 12.4307H242.902L240.313 22.249H240.184L237.327 12.4307H235.92L233.062 22.249H232.933L230.366 12.4307H228.937L232.214 24ZM247.655 10.0244C248.224 10.0244 248.697 9.5625 248.697 8.98242C248.697 8.40234 248.224 7.94043 247.655 7.94043C247.075 7.94043 246.602 8.40234 246.602 8.98242C246.602 9.5625 247.075 10.0244 247.655 10.0244ZM246.935 24H248.353V12.4307H246.935V24ZM255.888 24.0752C256.232 24.0752 256.554 24.043 256.876 23.9893V22.7646C256.586 22.7969 256.371 22.8076 256.049 22.8076C254.739 22.8076 254.234 22.2168 254.234 20.7988V13.623H256.876V12.4307H254.234V9.42285H252.762V12.4307H250.904V13.623H252.762V21.1211C252.762 23.2266 253.675 24.0752 255.888 24.0752ZM259.964 24H261.382V17.125C261.382 14.9443 262.768 13.5049 264.809 13.5049C266.807 13.5049 267.816 14.6328 267.816 16.835V24H269.234V16.4805C269.234 13.7842 267.763 12.2373 265.185 12.2373C263.38 12.2373 262.134 13.0537 261.521 14.4609H261.382V7.82227H259.964V24Z" fill="white"/>
<path d="M24.9512 138H42.9199L66.5039 67.541H50.1465L34.082 122.912H33.7891L17.6758 67.541H1.36719L24.9512 138ZM81.1504 78.918C85.4473 78.918 88.7676 75.5488 88.7676 71.4961C88.7676 67.4434 85.4473 64.0742 81.1504 64.0742C76.8535 64.0742 73.5332 67.4434 73.5332 71.4961C73.5332 75.5488 76.8535 78.918 81.1504 78.918ZM74.0215 138H88.2793V85.6562H74.0215V138ZM99.8496 138H114.107V108.508C114.107 101.135 118.209 96.8867 125.24 96.8867C127.291 96.8867 129.244 97.1797 130.416 97.668V85.1191C129.342 84.8262 127.877 84.582 126.314 84.582C120.113 84.582 115.67 88.2441 114.156 94.5918H113.863V85.6562H99.8496V138ZM159.076 139.074C162.055 139.074 164.35 138.781 165.961 138.537V128.088C165.082 128.186 164.154 128.332 162.885 128.332C158.588 128.332 156.391 126.672 156.391 121.789V96.3984H165.961V85.6562H156.391V72.8633H141.986V85.6562H134.711V96.3984H141.986V123.352C141.986 134.582 147.455 139.074 159.076 139.074ZM193.645 139.074C201.555 139.074 206.926 135.363 209.611 129.357H209.904V138H224.162V85.6562H209.904V115.734C209.904 122.57 205.852 127.258 199.455 127.258C193.059 127.258 189.836 123.303 189.836 116.467V85.6562H175.578V119.445C175.578 131.701 182.121 139.074 193.645 139.074ZM251.016 138.83C257.9 138.83 263.467 135.559 266.445 130.188H266.738V138H280.996V102.111C280.996 91.5645 272.256 84.582 258.73 84.582C244.912 84.582 236.611 91.5156 235.83 101.184L235.781 101.77H248.818L248.916 101.33C249.6 97.9609 252.822 95.4707 258.145 95.4707C263.711 95.4707 266.738 98.3516 266.738 102.99V106.213L253.799 106.994C240.811 107.824 233.438 113.391 233.438 122.912V123.01C233.438 132.238 240.518 138.83 251.016 138.83ZM247.549 122.277V122.18C247.549 118.469 250.43 116.125 255.947 115.783L266.738 115.1V118.859C266.738 124.328 262.051 128.43 255.654 128.43C250.723 128.43 247.549 126.135 247.549 122.277ZM292.566 138H306.824V67.541H292.566V138Z" fill="#81C98D"/>
<path d="M26.1719 249.074C39.6484 249.074 49.0723 242.336 49.0723 232.082V232.033C49.0723 224.318 44.5801 220.021 33.6426 217.727L24.7559 215.822C19.4824 214.699 17.6758 212.941 17.6758 210.256V210.207C17.6758 206.838 20.752 204.641 25.6836 204.641C30.957 204.641 34.0332 207.473 34.5215 211.232L34.5703 211.623H47.7051V211.135C47.3633 201.955 39.5996 194.582 25.6836 194.582C12.3535 194.582 3.75977 201.027 3.75977 210.988V211.037C3.75977 218.85 8.88672 223.928 19.043 226.076L27.9297 227.932C33.0566 229.055 34.8145 230.666 34.8145 233.449V233.498C34.8145 236.867 31.543 238.967 26.1719 238.967C20.459 238.967 17.3828 236.574 16.4551 232.473L16.3574 232.033H2.44141L2.49023 232.473C3.61328 242.385 11.6699 249.074 26.1719 249.074ZM78.9043 249.074C81.8828 249.074 84.1777 248.781 85.7891 248.537V238.088C84.9102 238.186 83.9824 238.332 82.7129 238.332C78.416 238.332 76.2188 236.672 76.2188 231.789V206.398H85.7891V195.656H76.2188V182.863H61.8145V195.656H54.5391V206.398H61.8145V233.352C61.8145 244.582 67.2832 249.074 78.9043 249.074ZM110.738 248.83C117.623 248.83 123.189 245.559 126.168 240.188H126.461V248H140.719V212.111C140.719 201.564 131.979 194.582 118.453 194.582C104.635 194.582 96.334 201.516 95.5527 211.184L95.5039 211.77H108.541L108.639 211.33C109.322 207.961 112.545 205.471 117.867 205.471C123.434 205.471 126.461 208.352 126.461 212.99V216.213L113.521 216.994C100.533 217.824 93.1602 223.391 93.1602 232.912V233.01C93.1602 242.238 100.24 248.83 110.738 248.83ZM107.271 232.277V232.18C107.271 228.469 110.152 226.125 115.67 225.783L126.461 225.1V228.859C126.461 234.328 121.773 238.43 115.377 238.43C110.445 238.43 107.271 236.135 107.271 232.277ZM176.41 266.164C192.133 266.164 201.947 258.205 201.947 246.535V195.656H187.689V204.592H187.396C184.564 198.488 178.852 194.582 171.479 194.582C158.246 194.582 150.043 204.494 150.043 221.193V221.242C150.043 237.502 158.148 247.268 171.234 247.268C178.803 247.268 184.662 243.801 187.396 238.332H187.689V246.34C187.689 252.199 183.783 256.008 176.41 256.008C170.453 256.008 166.645 253.762 165.521 251.174L165.375 250.832H151.508L151.557 251.271C152.924 259.67 162.006 266.164 176.41 266.164ZM176.166 236.818C169.037 236.818 164.545 231.008 164.545 221.584V221.535C164.545 212.16 169.086 206.398 176.166 206.398C183.1 206.398 187.738 212.209 187.738 221.535V221.584C187.738 230.959 183.148 236.818 176.166 236.818ZM220.744 188.918C225.041 188.918 228.361 185.549 228.361 181.496C228.361 177.443 225.041 174.074 220.744 174.074C216.447 174.074 213.127 177.443 213.127 181.496C213.127 185.549 216.447 188.918 220.744 188.918ZM213.615 248H227.873V195.656H213.615V248ZM239.443 248H253.701V217.922C253.701 211.086 257.754 206.398 264.15 206.398C270.547 206.398 273.77 210.305 273.77 217.141V248H288.027V214.211C288.027 201.955 281.484 194.582 269.961 194.582C262.051 194.582 256.68 198.244 253.994 204.25H253.701V195.656H239.443V248ZM323.523 266.164C339.246 266.164 349.061 258.205 349.061 246.535V195.656H334.803V204.592H334.51C331.678 198.488 325.965 194.582 318.592 194.582C305.359 194.582 297.156 204.494 297.156 221.193V221.242C297.156 237.502 305.262 247.268 318.348 247.268C325.916 247.268 331.775 243.801 334.51 238.332H334.803V246.34C334.803 252.199 330.896 256.008 323.523 256.008C317.566 256.008 313.758 253.762 312.635 251.174L312.488 250.832H298.621L298.67 251.271C300.037 259.67 309.119 266.164 323.523 266.164ZM323.279 236.818C316.15 236.818 311.658 231.008 311.658 221.584V221.535C311.658 212.16 316.199 206.398 323.279 206.398C330.213 206.398 334.852 212.209 334.852 221.535V221.584C334.852 230.959 330.262 236.818 323.279 236.818Z" fill="white"/>
</svg>
