<svg width="123" height="26" viewBox="0 0 123 26" fill="none" xmlns="http://www.w3.org/2000/svg">
<g clip-path="url(#clip0)">
<path d="M43.5636 14.9752L42.8364 17.031H42.7758C42.6546 16.5674 42.4324 15.862 42.0689 15.0155L38.1705 5.24031H34.353V20.8202H36.8778V11.2062C36.8778 10.6016 36.8778 9.91628 36.8576 9.06977C36.8374 8.64651 36.797 8.32403 36.7768 8.08217H36.8374C36.9586 8.68682 37.1 9.13023 37.201 9.4124L41.8871 20.7798H43.6646L48.3102 9.31163C48.4112 9.04961 48.5122 8.52558 48.6132 8.08217H48.6738C48.6132 9.23101 48.5728 10.2589 48.5526 10.8837V20.7597H51.2391V5.2H47.5629L43.5636 14.9752V14.9752ZM53.7841 9.5938H56.4099V20.7597H53.7841V9.5938ZM55.1172 4.87752C54.6728 4.87752 54.3093 5.03876 54.0063 5.32093C53.7033 5.6031 53.5417 5.96589 53.5417 6.4093C53.5417 6.83256 53.7033 7.19535 54.0063 7.47752C54.3093 7.75969 54.6728 7.90078 55.1172 7.90078C55.5616 7.90078 55.9453 7.73953 56.2281 7.47752C56.5311 7.19535 56.6927 6.83256 56.6927 6.4093C56.6927 5.98605 56.5311 5.62326 56.2281 5.32093C55.9655 5.03876 55.5818 4.87752 55.1172 4.87752V4.87752ZM65.7215 9.49302C65.2367 9.39225 64.7318 9.33178 64.247 9.33178C63.0553 9.33178 61.9645 9.5938 61.0556 10.1178C60.1467 10.6419 59.4195 11.3674 58.9549 12.2744C58.4702 13.2016 58.2278 14.2698 58.2278 15.4992C58.2278 16.5674 58.4702 17.5147 58.9347 18.3814C59.3993 19.2279 60.0457 19.9132 60.9142 20.3767C61.7424 20.8403 62.7119 21.0822 63.8026 21.0822C65.0549 21.0822 66.1255 20.8202 66.9738 20.3364L66.994 20.3163V17.8977L66.893 17.9783C66.5093 18.2605 66.0649 18.5023 65.6205 18.6434C65.1559 18.8047 64.7318 18.8853 64.3682 18.8853C63.3179 18.8853 62.4897 18.5829 61.904 17.9178C61.298 17.2729 60.995 16.386 60.995 15.2775C60.995 14.1287 61.298 13.2217 61.9242 12.5566C62.5503 11.8915 63.3785 11.5488 64.3884 11.5488C65.2367 11.5488 66.1053 11.831 66.893 12.3953L66.994 12.476V9.91628L66.9738 9.89612C66.6304 9.75504 66.2467 9.5938 65.7215 9.49302V9.49302ZM74.3867 9.4124C73.7404 9.4124 73.1344 9.61395 72.6093 10.0372C72.1649 10.4 71.8619 10.924 71.5993 11.5488H71.5791V9.5938H68.9533V20.7597H71.5791V15.0558C71.5791 14.0884 71.7811 13.2822 72.2255 12.6977C72.6698 12.093 73.2354 11.7907 73.9222 11.7907C74.1645 11.7907 74.4069 11.8512 74.7099 11.8915C74.9927 11.9721 75.1947 12.0527 75.3361 12.1535L75.4371 12.2341V9.61395L75.3765 9.5938C75.1947 9.47287 74.8311 9.4124 74.3867 9.4124V9.4124ZM81.5371 9.35194C79.699 9.35194 78.2245 9.89612 77.1944 10.9643C76.144 12.0326 75.6391 13.5039 75.6391 15.3581C75.6391 17.0915 76.1642 18.5023 77.1742 19.5302C78.1841 20.538 79.5576 21.062 81.2745 21.062C83.0722 21.062 84.5063 20.5178 85.5364 19.4295C86.5867 18.3411 87.0917 16.8899 87.0917 15.0961C87.0917 13.3225 86.6069 11.9116 85.6172 10.8837C84.6679 9.85581 83.2742 9.35194 81.5371 9.35194V9.35194ZM83.6377 17.938C83.153 18.5628 82.3854 18.8651 81.4361 18.8651C80.4867 18.8651 79.7192 18.5628 79.1738 17.8977C78.6285 17.2729 78.3659 16.3659 78.3659 15.2171C78.3659 14.0279 78.6487 13.1209 79.1738 12.476C79.7192 11.831 80.4665 11.5085 81.4159 11.5085C82.345 11.5085 83.0722 11.8109 83.5973 12.4357C84.1225 13.0605 84.4053 13.9674 84.4053 15.1566C84.3649 16.3659 84.1427 17.3132 83.6377 17.938V17.938ZM92.9493 14.2295C92.1212 13.8868 91.596 13.6248 91.3536 13.4031C91.1516 13.2016 91.0506 12.9194 91.0506 12.5566C91.0506 12.2543 91.1718 11.9519 91.4748 11.7504C91.7778 11.5488 92.1212 11.4481 92.6261 11.4481C93.0705 11.4481 93.5351 11.5287 93.9794 11.6496C94.4238 11.7705 94.8278 11.9519 95.151 12.1938L95.252 12.2744V9.8155L95.1914 9.79535C94.8884 9.67442 94.4844 9.55349 93.9996 9.45271C93.5149 9.37209 93.0705 9.33178 92.7069 9.33178C91.4546 9.33178 90.4245 9.63411 89.6165 10.2992C88.8086 10.924 88.4248 11.7705 88.4248 12.7581C88.4248 13.2822 88.5056 13.7457 88.6874 14.1287C88.8692 14.5116 89.1318 14.8744 89.4953 15.1767C89.8589 15.4589 90.3841 15.7814 91.1112 16.0837C91.7172 16.3457 92.1818 16.5473 92.4645 16.7085C92.7473 16.8698 92.9291 17.0512 93.0705 17.1922C93.1715 17.3535 93.2321 17.555 93.2321 17.8171C93.2321 18.5628 92.6665 18.9256 91.5152 18.9256C91.0708 18.9256 90.6063 18.845 90.0609 18.6636C89.5155 18.4822 89.0106 18.2202 88.5864 17.9178L88.4854 17.8372V20.3969L88.546 20.4171C88.9298 20.5985 89.3943 20.7194 89.9599 20.8605C90.5255 20.9612 91.0304 21.0419 91.4748 21.0419C92.8281 21.0419 93.9391 20.7395 94.7268 20.0744C95.5347 19.4295 95.9589 18.6031 95.9589 17.5349C95.9589 16.7891 95.7569 16.124 95.3126 15.6202C94.7268 15.1364 93.9996 14.6326 92.9493 14.2295V14.2295ZM102.887 9.35194C101.049 9.35194 99.5745 9.89612 98.5443 10.9643C97.5142 12.0326 96.9891 13.5039 96.9891 15.3581C96.9891 17.0915 97.5142 18.5023 98.5241 19.5302C99.5341 20.538 100.908 21.062 102.624 21.062C104.422 21.062 105.856 20.5178 106.886 19.4295C107.937 18.3411 108.442 16.8899 108.442 15.0961C108.442 13.3225 107.957 11.9116 106.967 10.8837C106.018 9.85581 104.624 9.35194 102.887 9.35194V9.35194ZM104.968 17.938C104.483 18.5628 103.715 18.8651 102.766 18.8651C101.796 18.8651 101.049 18.5628 100.504 17.8977C99.9583 17.2729 99.6957 16.3659 99.6957 15.2171C99.6957 14.0279 99.9785 13.1209 100.504 12.476C101.049 11.831 101.796 11.5085 102.746 11.5085C103.655 11.5085 104.402 11.8109 104.927 12.4357C105.452 13.0605 105.735 13.9674 105.735 15.1566C105.735 16.3659 105.472 17.3132 104.968 17.938V17.938ZM122.48 11.7504V9.5938H119.834V6.28837L119.753 6.30853L117.248 7.05426L117.188 7.07442V9.5938H113.229V8.18295C113.229 7.53798 113.39 7.03411 113.673 6.71163C113.956 6.38915 114.38 6.22791 114.905 6.22791C115.269 6.22791 115.653 6.30853 116.077 6.48992L116.178 6.55039V4.27287L116.117 4.25271C115.754 4.13178 115.269 4.05116 114.643 4.05116C113.855 4.05116 113.168 4.23256 112.542 4.53488C111.916 4.87752 111.451 5.34109 111.108 5.96589C110.765 6.57054 110.583 7.25581 110.583 8.04186V9.5938H108.745V11.7302H110.583V20.7597H113.229V11.7504H117.188V17.4946C117.188 19.8527 118.299 21.0419 120.521 21.0419C120.884 21.0419 121.268 20.9814 121.631 20.9209C122.015 20.8403 122.298 20.7395 122.46 20.6589L122.48 20.6388V18.4822L122.379 18.5628C122.217 18.6636 122.076 18.7442 121.833 18.8047C121.631 18.8651 121.45 18.8853 121.308 18.8853C120.783 18.8853 120.42 18.7643 120.157 18.462C119.915 18.1798 119.793 17.7163 119.793 17.031V11.7504H122.48V11.7504Z" fill="white"/>
<path d="M0.5 0H12.8818V12.355H0.5V0Z" fill="white"/>
<path d="M14.1744 0H26.5562V12.355H14.1744V0Z" fill="white"/>
<path d="M0.5 13.645H12.8818V26H0.5V13.645Z" fill="white"/>
<path d="M14.1744 13.645H26.5562V26H14.1744V13.645Z" fill="white"/>
</g>
<defs>
<clipPath id="clip0">
<rect width="122" height="26" fill="white" transform="translate(0.5)"/>
</clipPath>
</defs>
</svg>
