<svg width="97" height="97" viewBox="0 0 97 97" fill="none" xmlns="http://www.w3.org/2000/svg">
<path d="M56.0434 30H3.91634C2.31245 30 1 31.3222 1 32.9383V74.9518C1 76.5673 2.31245 77.8897 3.91634 77.8897H13.4909V89.4832C13.4909 91.0988 14.4192 91.4856 15.553 90.3437L27.9172 77.8897H68.0835C69.6872 77.8897 71 76.5675 71 74.9518V45.0617C63.5549 43.3913 57.6961 37.4923 56.0434 30Z" fill="#F4FBFF"/>
<path d="M7.04349 75.0553V32.945C7.04349 31.3254 8.37401 30 10 30H3.95651C2.33053 30 1 31.3252 1 32.945V75.0553C1 76.6746 2.33053 78 3.95651 78H10C8.37401 77.9998 7.04349 76.6746 7.04349 75.0553Z" fill="#D8E8F1"/>
<path d="M96 25.9995C96 37.0452 87.0463 46 76 46C64.9542 46 56 37.0452 56 25.9995C56 14.9542 64.9542 6 76 6C87.0463 6.00019 96 14.9542 96 25.9995Z" fill="#95D6A4"/>
<path d="M61.9731 25.9993C61.9731 15.9684 69.3637 7.66281 79 6.22201C78.0256 6.07631 77.0285 6 76.0134 6C64.9603 6 56 14.954 56 25.9995C56 37.0452 64.9603 46 76.0134 46C77.0285 46 78.0256 45.9241 79 45.7784C69.3637 44.337 61.9731 36.0308 61.9731 25.9993Z" fill="#78C2A4"/>
<path d="M1 21.0641C1 21.5788 1.42157 22 1.93683 22H39.0632C39.5784 22 40 21.5788 40 21.0641V9.93594C40 9.42117 39.5784 9 39.0632 9H1.93683C1.42157 9 1 9.42117 1 9.93594V21.0641Z" fill="#8795DE"/>
<path d="M7.03717 21.0641V16.7258C6.59484 16.486 6.2952 16.0272 6.2952 15.4995C6.2952 14.9724 6.59484 14.5132 7.03717 14.2733V9.93594C7.03717 9.42117 7.47044 9 8 9H1.96283C1.43328 9 1 9.42117 1 9.93594V21.0641C1 21.5788 1.43328 22 1.96283 22H8C7.47044 22 7.03717 21.5788 7.03717 21.0641Z" fill="#6979CC"/>
<path d="M71.5941 57C70.8175 57 70.1882 57.6497 70.1882 58.4514V75.5622C70.1882 76.4084 69.523 77.0972 68.7053 77.0972H40.4059C39.6295 77.0972 39 77.7468 39 78.5486C39 79.3503 39.6295 80 40.4059 80H68.7053C71.0734 80 73 78.0093 73 75.5622V58.4514C73 57.6497 72.3705 57 71.5941 57Z" fill="black"/>
<path d="M16.4062 47H56.5938C57.3706 47 58 46.3286 58 45.5C58 44.6714 57.3706 44 56.5938 44H16.4062C15.6296 44 15 44.6714 15 45.5C15 46.3284 15.6294 47 16.4062 47Z" fill="black"/>
<path d="M16.4062 56H56.5938C57.3706 56 58 55.3286 58 54.5C58 53.6714 57.3706 53 56.5938 53H16.4062C15.6296 53 15 53.6714 15 54.5C15 55.3286 15.6294 56 16.4062 56Z" fill="black"/>
<path d="M16.4047 64H37.5953C38.3711 64 39 63.3286 39 62.5C39 61.6714 38.3711 61 37.5953 61H16.4047C15.6289 61 15 61.6714 15 62.5C15 63.3284 15.6287 64 16.4047 64Z" fill="black"/>
<path d="M75.8159 5C64.135 5 54.6318 14.5458 54.6318 26.2792C54.6318 27.2604 54.6997 28.2259 54.8283 29.1717H4.34037C1.94701 29.1717 0 31.1298 0 33.536V75.5342C0 77.9406 1.94701 79.8983 4.34037 79.8983H12.5043V90.0603C12.5043 91.9447 13.4343 92.6127 13.9887 92.8432C14.1599 92.9142 14.4407 93 14.7991 93C15.3737 93 16.1488 92.78 16.9949 91.9291L28.9562 79.8981H33.1543C33.939 79.8981 34.5752 79.2592 34.5752 78.4708C34.5752 77.6824 33.939 77.0435 33.1543 77.0435H28.3672C27.99 77.0435 27.6283 77.194 27.3618 77.4624L15.3461 89.5476V78.4708C15.3461 77.6824 14.7099 77.0435 13.9252 77.0435H4.34037C3.51398 77.0435 2.8418 76.3662 2.8418 75.534V33.536C2.8418 32.7034 3.51398 32.0261 4.34037 32.0261H55.4173C57.4066 39.1419 62.9945 44.76 70.0751 46.7648V52.0466C70.0751 52.8351 70.7111 53.4739 71.496 53.4739C72.2809 53.4739 72.9169 52.8351 72.9169 52.0466V47.3592C73.8651 47.4901 74.8325 47.5592 75.8159 47.5592C87.4968 47.5592 97 38.013 97 26.279C97 14.5458 87.4968 5 75.8159 5ZM75.8159 44.7048C65.7018 44.7048 57.4736 36.439 57.4736 26.2792C57.4736 16.12 65.702 7.85461 75.8159 7.85461C85.9301 7.85461 94.1582 16.12 94.1582 26.2792C94.1582 36.439 85.9299 44.7048 75.8159 44.7048Z" fill="black"/>
<path d="M81.6153 31.4422C78.5191 34.7881 73.481 34.7881 70.3847 31.4422C69.8359 30.8489 68.9499 30.8532 68.4055 31.4518C67.8614 32.0501 67.8653 33.0166 68.4145 33.6099C70.5058 35.8698 73.2529 37 76 37C78.7473 37 81.4942 35.8698 83.5856 33.6099C84.1346 33.0166 84.1387 32.0501 83.5945 31.4518C83.0506 30.8534 82.1643 30.8489 81.6153 31.4422Z" fill="black"/>
<path d="M84 19C81.2429 19 79 21.0733 79 23.6218C79 24.3831 79.6609 25 80.4766 25C81.2923 25 81.9532 24.3831 81.9532 23.6218C81.9532 22.5932 82.8715 21.7563 84 21.7563C85.1285 21.7563 86.0468 22.5933 86.0468 23.6218C86.0468 24.3831 86.7077 25 87.5234 25C88.3391 25 89 24.3831 89 23.6218C88.9998 21.0733 86.7569 19 84 19Z" fill="black"/>
<path d="M70.0468 23.6218C70.0468 24.3831 70.708 25 71.5234 25C72.3391 25 73 24.3831 73 23.6218C73 21.0733 70.757 19 67.9999 19C65.243 19 63 21.0733 63 23.6218C63 24.3831 63.6609 25 64.4766 25C65.2922 25 65.9532 24.3831 65.9532 23.6218C65.9532 22.5932 66.8712 21.7563 67.9999 21.7563C69.1286 21.7563 70.0468 22.5932 70.0468 23.6218Z" fill="black"/>
<path d="M2.35269 23H27.6676C28.4472 23 29.0792 22.364 29.0792 21.579C29.0792 20.7941 28.4472 20.158 27.6676 20.158H2.82323V9.84195H39.1768V20.158H34.4434C33.6638 20.158 33.0317 20.7941 33.0317 21.579C33.0317 22.364 33.6638 23 34.4434 23H39.6473C40.9447 23 42 21.9377 42 20.6317V9.36829C42 8.06251 40.9447 7 39.6473 7H2.35269C1.05532 7 0 8.06251 0 9.36829V20.6317C0 21.9375 1.05532 23 2.35269 23Z" fill="black"/>
<path d="M35 15.5C35 14.6714 34.3593 14 33.5691 14H8.4309C7.64066 14 7 14.6714 7 15.5C7 16.3286 7.64066 17 8.4309 17H33.5691C34.3593 17 35 16.3286 35 15.5Z" fill="black"/>
</svg>
