<svg width="97" height="87" viewBox="0 0 97 87" fill="none" xmlns="http://www.w3.org/2000/svg">
<path d="M26.4983 20H19.5017C17.5678 20 16 18.4322 16 16.4983V9.50175C16 7.56782 17.5678 6 19.5017 6H26.4983C28.4322 6 30 7.56782 30 9.50175V16.4984C30 18.4322 28.4322 20 26.4983 20Z" fill="#95D6A4"/>
<path d="M24 20H19.4301C17.5359 20 16 18.4317 16 16.4981V9.50213C16 7.56674 17.5361 6 19.4301 6H24C22.1043 6 20.5697 7.56655 20.5697 9.50213V16.4981C20.5699 18.4317 22.1043 20 24 20Z" fill="#78C2A4"/>
<path d="M59.4983 20H52.5017C50.5678 20 49 18.4322 49 16.4983V9.50175C49 7.56782 50.5678 6 52.5017 6H59.4983C61.4322 6 63 7.56782 63 9.50175V16.4984C63 18.4322 61.4322 20 59.4983 20Z" fill="#95D6A4"/>
<path d="M57 20H52.4301C50.5359 20 49 18.4317 49 16.4981V9.50213C49 7.56674 50.5361 6 52.4301 6H57C55.1043 6 53.5697 7.56655 53.5697 9.50213V16.4981C53.5697 18.4317 55.1043 20 57 20Z" fill="#78C2A4"/>
<path d="M91.4983 20H84.5017C82.5678 20 81 18.4322 81 16.4983V9.50175C81 7.56782 82.5678 6 84.5017 6H91.4983C93.4322 6 95 7.56782 95 9.50175V16.4984C95 18.4322 93.4322 20 91.4983 20Z" fill="#95D6A4"/>
<path d="M89 20H84.4301C82.5359 20 81 18.4317 81 16.4981V9.50213C81 7.56674 82.5361 6 84.4301 6H89C87.1043 6 85.5697 7.56655 85.5697 9.50213V16.4981C85.5699 18.4317 87.1043 20 89 20Z" fill="#78C2A4"/>
<path d="M26.4983 53H19.5017C17.5678 53 16 51.4322 16 49.4983V42.5017C16 40.5678 17.5678 39 19.5017 39H26.4983C28.4322 39 30 40.5678 30 42.5017V49.4983C30 51.4322 28.4322 53 26.4983 53Z" fill="#95D6A4"/>
<path d="M24 53H19.4301C17.5359 53 16 51.4317 16 49.4981V42.5021C16 40.5667 17.5361 39 19.4301 39H24C22.1043 39 20.5697 40.5665 20.5697 42.5021V49.4981C20.5699 51.4317 22.1043 53 24 53Z" fill="#78C2A4"/>
<path d="M91.4983 53H84.5017C82.5678 53 81 51.4322 81 49.4983V42.5017C81 40.5678 82.5678 39 84.5017 39H91.4983C93.4322 39 95 40.5678 95 42.5017V49.4983C95 51.4322 93.4322 53 91.4983 53Z" fill="#95D6A4"/>
<path d="M89 53H84.4301C82.5359 53 81 51.4317 81 49.4981V42.5021C81 40.5667 82.5361 39 84.4301 39H89C87.1043 39 85.5697 40.5665 85.5697 42.5021V49.4981C85.5699 51.4317 87.1043 53 89 53Z" fill="#78C2A4"/>
<path d="M26.4983 85H19.5017C17.5678 85 16 83.4322 16 81.4983V74.5017C16 72.5678 17.5678 71 19.5017 71H26.4983C28.4322 71 30 72.5678 30 74.5017V81.4983C30 83.4324 28.4322 85 26.4983 85Z" fill="#95D6A4"/>
<path d="M24 85H19.4301C17.5359 85 16 83.4317 16 81.4981V74.5021C16 72.5667 17.5361 71 19.4301 71H24C22.1043 71 20.5697 72.5665 20.5697 74.5021V81.4981C20.5699 83.4317 22.1043 85 24 85Z" fill="#78C2A4"/>
<path d="M59.4983 85H52.5017C50.5678 85 49 83.4322 49 81.4983V74.5017C49 72.5678 50.5678 71 52.5017 71H59.4983C61.4322 71 63 72.5678 63 74.5017V81.4983C63 83.4324 61.4322 85 59.4983 85Z" fill="#95D6A4"/>
<path d="M57 85H52.4301C50.5359 85 49 83.4317 49 81.4981V74.5021C49 72.5667 50.5361 71 52.4301 71H57C55.1043 71 53.5697 72.5665 53.5697 74.5021V81.4981C53.5697 83.4317 55.1043 85 57 85Z" fill="#78C2A4"/>
<path d="M91.4983 85H84.5017C82.5678 85 81 83.4322 81 81.4983V74.5017C81 72.5678 82.5678 71 84.5017 71H91.4983C93.4322 71 95 72.5678 95 74.5017V81.4983C95 83.4324 93.4322 85 91.4983 85Z" fill="#95D6A4"/>
<path d="M89 85H84.4301C82.5359 85 81 83.4317 81 81.4981V74.5021C81 72.5667 82.5361 71 84.4301 71H89C87.1043 71 85.5697 72.5665 85.5697 74.5021V81.4981C85.5699 83.4317 87.1043 85 89 85Z" fill="#78C2A4"/>
<path d="M37.6774 42.9903L27.671 40.3792C24.5911 39.5755 21.3725 41.0677 20.0133 43.9293L15.5982 53.2266C12.6574 59.419 3.33682 57.5688 3.0161 50.7287L1.00785 7.89013C0.732943 2.02685 7.74485 -1.22395 12.0898 2.75232L43.8349 31.8045C48.9037 36.4434 44.3423 44.7296 37.6774 42.9903Z" fill="#8185A1"/>
<path d="M14 55.7736C9.97147 58.6103 3.36639 56.3608 3.09256 50.7304L1.00813 7.88975C0.752425 2.63126 6.58064 -0.525224 11.0378 1.74734C9.2751 2.94959 8.0796 4.93984 8.19887 7.38407L10.2835 50.2248C10.4127 52.8966 11.9696 54.8081 14 55.7736Z" fill="#5F6487"/>
<path d="M92.158 21.7348C94.8279 21.7348 97 19.5723 97 16.9142V10.109C97 7.45091 94.8279 5.28846 92.158 5.28846H85.3223C82.6523 5.28846 80.4803 7.45091 80.4803 10.109V12.0972H64.2222V10.109C64.2222 7.45091 62.0501 5.28846 59.3801 5.28846H52.5445C49.8745 5.28846 47.7024 7.45091 47.7024 10.109V12.0972H31.4436V10.1081C31.4436 7.45091 29.2721 5.28902 26.6031 5.28902H19.7657C18.9916 5.28902 18.2406 5.4716 17.5663 5.81488L13.5727 2.15295C11.1126 -0.102482 7.70171 -0.62909 4.6714 0.778341C1.64054 2.18615 -0.145817 5.12701 0.00934514 8.45376L1.25973 35.1708C1.2963 35.9513 1.96469 36.5558 2.74524 36.5181C3.52919 36.4817 4.13487 35.8196 4.0985 35.0392L2.84811 8.3223C2.72781 5.74226 4.33172 4.05813 5.87292 3.34235C7.41393 2.62675 9.74022 2.48529 11.6476 4.23411L43.6766 33.6012C45.9043 35.644 45.6338 38.2999 44.7252 39.9535C43.8167 41.6069 41.7172 43.2661 38.7879 42.4998L28.6923 39.8611C24.9234 38.875 20.982 40.7055 19.3203 44.2129L14.8644 53.6117C13.5721 56.3383 10.9468 56.8751 9.09078 56.506C7.23433 56.1369 5.0164 54.6368 4.87526 51.6239L4.36373 40.69C4.32736 39.9097 3.66333 39.3056 2.87823 39.3427C2.09428 39.379 1.48859 40.0412 1.52497 40.8217L2.03649 51.7556C2.21287 55.5186 4.82391 58.5426 8.53397 59.2803C9.08983 59.3908 9.64208 59.4446 10.1858 59.4446C13.2705 59.4446 16.0619 57.7146 17.4341 54.819L17.838 53.967C18.4412 54.2283 19.0975 54.3679 19.7659 54.3679H21.7656V70.5533H19.7666C17.0967 70.5533 14.9246 72.7158 14.9246 75.3739V82.1792C14.9246 84.8374 17.0967 86.9998 19.7666 86.9998H26.6021C29.2721 86.9998 31.4441 84.8374 31.4441 82.1792V80.1909H47.7024V82.1792C47.7024 84.8374 49.8745 86.9998 52.5445 86.9998H59.3801C62.0501 86.9998 64.2222 84.8374 64.2222 82.1792V80.1909H80.4797V82.179C80.4797 84.8374 82.652 87 85.3221 87H89.3158C90.1005 87 90.7367 86.3666 90.7367 85.5854C90.7367 84.8042 90.1005 84.1708 89.3158 84.1708H85.3221C84.2189 84.1708 83.3215 83.2773 83.3215 82.179V75.3739C83.3215 74.2756 84.2189 73.3821 85.3221 73.3821H92.1576C93.2608 73.3821 94.1582 74.2756 94.1582 75.3739V82.179C94.1582 82.666 93.9894 83.1163 93.67 83.4814C93.1547 84.0706 93.2168 84.9643 93.8087 85.4773C94.4005 85.9902 95.298 85.9285 95.8135 85.3393C96.5787 84.4643 97 83.3419 97 82.179V75.3739C97 72.7156 94.8277 70.5529 92.1576 70.5529H90.1589V54.3673H92.158C94.8279 54.3673 97 52.2048 97 49.5467V42.7416C97 40.0834 94.8279 37.921 92.158 37.921H90.1589V21.735H92.158V21.7348ZM83.3221 10.109C83.3221 9.01093 84.2193 8.11765 85.3223 8.11765H92.158C93.261 8.11765 94.1582 9.01093 94.1582 10.109V16.9142C94.1582 18.0123 93.261 18.9056 92.158 18.9056H85.3223C84.2193 18.9056 83.3221 18.0123 83.3221 16.9142V10.109ZM50.5444 10.109C50.5444 9.01093 51.4417 8.11765 52.5447 8.11765H59.3803C60.4833 8.11765 61.3806 9.01093 61.3806 10.109V16.9142C61.3806 18.0123 60.4833 18.9056 59.3803 18.9056H52.5447C51.4417 18.9056 50.5444 18.0123 50.5444 16.9142V10.109ZM26.6032 8.11822C27.7053 8.11822 28.602 9.01093 28.602 10.1081V15.933L20.0787 8.11803H26.6032V8.11822ZM19.052 51.4064L21.89 45.4202C22.968 43.145 25.5245 41.9577 27.9701 42.5976L28.6018 42.7627V49.5471C28.6018 50.6454 27.7051 51.5388 26.6031 51.5388H19.7657C19.5166 51.5388 19.2765 51.4919 19.052 51.4064ZM28.6025 82.1792C28.6025 83.2773 27.7053 84.1706 26.6023 84.1706H19.7668C18.6638 84.1706 17.7666 83.2773 17.7666 82.1792V75.3739C17.7666 74.2758 18.6638 73.3825 19.7668 73.3825H26.6023C27.7053 73.3825 28.6025 74.2758 28.6025 75.3739V82.1792ZM61.3804 82.1792C61.3804 83.2773 60.4831 84.1706 59.3801 84.1706H52.5445C51.4415 84.1706 50.5442 83.2773 50.5442 82.1792V75.3739C50.5442 74.2758 51.4415 73.3825 52.5445 73.3825H59.3801C60.4831 73.3825 61.3804 74.2758 61.3804 75.3739V82.1792ZM94.1582 42.7416V49.5467C94.1582 50.6448 93.261 51.5381 92.158 51.5381H85.3223C84.2193 51.5381 83.3221 50.6448 83.3221 49.5467V42.7416C83.3221 41.6434 84.2193 40.7502 85.3223 40.7502H92.158C93.261 40.7502 94.1582 41.6434 94.1582 42.7416ZM87.3171 37.921H85.3223C82.6523 37.921 80.4803 40.0834 80.4803 42.7416V49.5467C80.4803 52.2048 82.6523 54.3673 85.3223 54.3673H87.3171V70.5529H85.3221C82.652 70.5529 80.4797 72.7156 80.4797 75.3739V77.3617H64.2222V75.3741C64.2222 72.716 62.0501 70.5535 59.3801 70.5535H52.5445C49.8745 70.5535 47.7024 72.716 47.7024 75.3741V77.3617H31.4441V75.3741C31.4441 72.716 29.2721 70.5535 26.6021 70.5535H24.6072V54.368H26.6031C29.2721 54.368 31.4436 52.2054 31.4436 49.5471V43.5054L38.0659 45.2361C41.7241 46.1928 45.4025 44.6152 47.218 41.3111C49.0337 38.0064 48.3843 34.0718 45.6016 31.52L31.2257 18.339C31.368 17.8805 31.4438 17.4012 31.4438 16.9153V14.9266H47.7026V16.9144C47.7026 19.5725 49.8747 21.735 52.5447 21.735H59.3803C62.0503 21.735 64.2224 19.5725 64.2224 16.9144V14.9266H80.4805V16.9144C80.4805 19.5725 82.6525 21.735 85.3225 21.735H87.3172V37.921H87.3171Z" fill="black"/>
</svg>
